<svg xmlns="http://www.w3.org/2000/svg" width="210" height="52" fill="none" xmlns:v="https://vecta.io/nano"><g clip-path="url(#D)"><path d="M52 0H0V52H52V0Z" fill="url(#B)"/><path d="M31.026 36.363V7.726h3.182l14.319 44.547H27.844l-11.137-9.546 14.319-6.364z" fill="url(#C)"/><g filter="url(#A)"><path d="M34.566 7.713v24.755c0 6.503-5.243 11.818-11.748 11.818S11.07 38.971 11.07 32.468h6.783c0 2.727 2.238 4.965 4.965 4.965s4.965-2.238 4.965-4.965V14.497h-4.965V7.713h11.748z" fill="#fff"/></g></g><g clip-path="url(#E)" fill="#399"><path d="M76.413 28.052a17.13 17.13 0 0 1-.276 3.121c-.163.958-.523 1.872-1.056 2.682-.565.815-1.335 1.462-2.231 1.874-.963.469-2.226.704-3.788.704a7.87 7.87 0 0 1-4.622-1.314c-1.257-.874-2.071-2.243-2.44-4.107l2.291-.563a3.41 3.41 0 0 1 1.662.033 3.44 3.44 0 0 1 1.453.815 2.22 2.22 0 0 0 1.511.59 1.98 1.98 0 0 0 1.368-.442 2.63 2.63 0 0 0 .717-1.103 5.47 5.47 0 0 0 .276-1.428l.05-1.428V12.579h2.354c.721 0 1.413.289 1.923.804a2.76 2.76 0 0 1 .797 1.942l.013 12.727zm17.455 7.788H90.88a.85.85 0 0 1-.601-.254c-.159-.161-.249-.38-.249-.608V33.67h-.066a5.38 5.38 0 0 1-.664.922 4.44 4.44 0 0 1-.996.821 5.68 5.68 0 0 1-1.328.59 5.47 5.47 0 0 1-1.627.231 6.77 6.77 0 0 1-3.008-.577 4.33 4.33 0 0 1-1.79-1.593 6.29 6.29 0 0 1-.847-2.401 19.92 19.92 0 0 1-.212-2.987V20.73c0-.229.09-.448.25-.609a.85.85 0 0 1 .603-.252h3.178a.85.85 0 0 1 .601.254.87.87 0 0 1 .249.608v6.96l.05 1.428a4.57 4.57 0 0 0 .292 1.364 2.13 2.13 0 0 0 .857 1.09 2.09 2.09 0 0 0 1.341.322c.53.027 1.057-.089 1.527-.335.378-.216.688-.534.896-.919.212-.404.35-.844.405-1.297.068-.501.101-1.006.1-1.512v-7.101c0-.229.09-.448.25-.609a.85.85 0 0 1 .603-.252h3.174a.85.85 0 0 1 .603.252c.16.162.25.381.25.609v14.245a.87.87 0 0 1-.065.33.86.86 0 0 1-.185.279.84.84 0 0 1-.277.187c-.104.043-.215.066-.327.066zm22.225-1.579l-.687.909c-.221.288-.502.523-.823.689s-.674.258-1.035.27-.719-.056-1.05-.2a2.45 2.45 0 0 1-.867-.632l-1.358-1.546h-.063c-.225.317-.482.609-.767.872a5.98 5.98 0 0 1-1.106.805 6.73 6.73 0 0 1-1.398.59 5.42 5.42 0 0 1-1.58.231 8.07 8.07 0 0 1-3.187-.61c-.93-.387-1.767-.968-2.457-1.706a7.62 7.62 0 0 1-1.577-2.612 9.61 9.61 0 0 1-.555-3.319 10.2 10.2 0 0 1 .505-3.225 8.81 8.81 0 0 1 1.431-2.709c.613-.784 1.384-1.429 2.261-1.891a6.39 6.39 0 0 1 3.028-.704 8.27 8.27 0 0 1 2.845.476 4.53 4.53 0 0 1 2.165 1.626h.067v-9.153a1.43 1.43 0 0 1 .412-1.005 1.4 1.4 0 0 1 .995-.416h2.162a1.4 1.4 0 0 1 .958.38c.261.244.42.579.446.938l1.528 20.967c.023.35-.081.697-.293.976zm-5.82-6.403c.047-1.073-.321-2.123-1.026-2.927-.664-.744-1.643-1.116-2.879-1.116s-2.194.372-2.878 1.116c-.664.828-1.026 1.86-1.026 2.925s.362 2.098 1.026 2.925c.684.744 1.643 1.116 2.878 1.116s2.198-.372 2.879-1.116c.705-.803 1.073-1.851 1.026-2.924zm24.988 6.641c0 3.017-.81 5.26-2.261 6.883-3.436 3.846-9.413 2.505-11.046 1.867-2.527-.986-6.003-3.386-6.335-5.062-.113-.573.222-1.257.664-1.861a3.17 3.17 0 0 1 1.087-.879 3.13 3.13 0 0 1 1.356-.321c3.171.184 2.325 4.261 7.305 4.261 1.55 0 2.6-.365 3.304-1.1a3.88 3.88 0 0 0 1.055-2.809v-1.542h-.063c-.528.736-1.257 1.301-2.098 1.626a6.71 6.71 0 0 1-2.361.476 8.12 8.12 0 0 1-3.187-.607 7.1 7.1 0 0 1-2.457-1.71 7.63 7.63 0 0 1-1.577-2.612c-.38-1.064-.568-2.188-.555-3.319a9.7 9.7 0 0 1 .505-3.088 8.46 8.46 0 0 1 1.431-2.662 7.19 7.19 0 0 1 2.261-1.857 6.39 6.39 0 0 1 3.028-.704 7.49 7.49 0 0 1 1.903.228 7.34 7.34 0 0 1 1.543.593 5.63 5.63 0 0 1 1.173.805 5.07 5.07 0 0 1 .78.868h.066V20.36a.49.49 0 0 1 .142-.346.48.48 0 0 1 .343-.143 3.97 3.97 0 0 1 1.533.308 4.01 4.01 0 0 1 1.3.877c.372.375.666.822.867 1.313a4.07 4.07 0 0 1 .304 1.548l-.01 10.581zm-12.285-6.735c-.002.51.096 1.015.289 1.487a3.84 3.84 0 0 0 .834 1.259c.359.361.778.654 1.238.868a3.54 3.54 0 0 0 1.544.335 3.6 3.6 0 0 0 1.531-.335 4.28 4.28 0 0 0 1.251-.868 3.88 3.88 0 0 0 .835-1.259 3.92 3.92 0 0 0 0-2.971 3.88 3.88 0 0 0-.835-1.259c-.362-.363-.786-.659-1.251-.872a3.65 3.65 0 0 0-1.531-.335 3.69 3.69 0 0 0-1.544.335c-.46.215-.88.51-1.238.872a3.88 3.88 0 0 0-.831 1.247 3.86 3.86 0 0 0-.305 1.488l.013.007zm29.607 4.659a1.01 1.01 0 0 1 .399.736 1.02 1.02 0 0 1-.061.425 1.01 1.01 0 0 1-.232.361 7.88 7.88 0 0 1-2.181 1.468 8.79 8.79 0 0 1-3.709.821 9.9 9.9 0 0 1-3.433-.593c-1.033-.366-1.983-.936-2.796-1.676a7.92 7.92 0 0 1-1.872-2.645 9.03 9.03 0 0 1 0-6.9 7.92 7.92 0 0 1 1.872-2.645c.812-.746 1.762-1.322 2.796-1.693a9.87 9.87 0 0 1 3.433-.59 7.71 7.71 0 0 1 3.075.59 6.42 6.42 0 0 1 2.344 1.693 7.74 7.74 0 0 1 1.481 2.645 10.82 10.82 0 0 1 .521 3.45v.114a1.44 1.44 0 0 1-.417 1.01 1.41 1.41 0 0 1-1.001.418h-9.908c.164.87.614 1.658 1.279 2.236a3.57 3.57 0 0 0 2.41.838 3.65 3.65 0 0 0 2.032-.54 6.14 6.14 0 0 0 .538-.402 1.69 1.69 0 0 1 2.112-.107l1.318.986zm-3.244-6.37c.017-.393-.047-.786-.186-1.153a2.88 2.88 0 0 0-.627-.982 2.9 2.9 0 0 0-.997-.679c-.376-.153-.78-.225-1.185-.21-.489-.01-.976.079-1.431.262a3.73 3.73 0 0 0-1.059.671 2.98 2.98 0 0 0-.664.955 3.17 3.17 0 0 0-.279 1.133l6.428.003zm59.024 6.37a1.01 1.01 0 0 1 .28.324c.068.127.109.268.119.412a1.01 1.01 0 0 1-.061.425 1.02 1.02 0 0 1-.232.361c-.64.609-1.378 1.105-2.181 1.468a8.79 8.79 0 0 1-3.709.821 9.9 9.9 0 0 1-3.433-.593 8.23 8.23 0 0 1-2.795-1.676 7.91 7.91 0 0 1-1.873-2.645 9.03 9.03 0 0 1 0-6.9 7.91 7.91 0 0 1 1.873-2.645 8.24 8.24 0 0 1 2.795-1.693 9.87 9.87 0 0 1 3.433-.59 7.71 7.71 0 0 1 3.075.59 6.42 6.42 0 0 1 2.344 1.693 7.74 7.74 0 0 1 1.481 2.645 10.82 10.82 0 0 1 .521 3.45v.114a1.44 1.44 0 0 1-.416 1.01 1.41 1.41 0 0 1-1.002.418h-9.907a3.92 3.92 0 0 0 1.278 2.236 3.57 3.57 0 0 0 2.411.838 3.65 3.65 0 0 0 2.031-.54 6.14 6.14 0 0 0 .538-.402 1.69 1.69 0 0 1 2.112-.107l1.318.986zm-3.244-6.37a2.89 2.89 0 0 0-.186-1.153 2.88 2.88 0 0 0-.627-.982 2.89 2.89 0 0 0-.997-.679c-.376-.153-.78-.225-1.185-.21-.489-.01-.976.079-1.431.262-.387.162-.745.389-1.059.671a2.98 2.98 0 0 0-.664.955 3.17 3.17 0 0 0-.279 1.133l6.428.003zm-47.841 6.96c-.001-.405.075-.807.226-1.183a2.88 2.88 0 0 1 .635-.97 2.84 2.84 0 0 1 .962-.639 3.12 3.12 0 0 1 2.324 0c.358.147.684.365.959.64a2.89 2.89 0 0 1 .634.969c.306.759.306 1.608 0 2.367a2.9 2.9 0 0 1-.617.972c-.274.277-.602.493-.963.637-.745.304-1.579.304-2.324 0a2.84 2.84 0 0 1-.963-.64 3 3 0 0 1-.634-.969 3.14 3.14 0 0 1-.239-1.184zm9.668-13.142h1.75a2.11 2.11 0 0 1 .818.165 2.15 2.15 0 0 1 .693.468 2.16 2.16 0 0 1 .462.701c.108.262.162.543.162.826h.066a4.07 4.07 0 0 1 .664-.919c.293-.319.629-.595.997-.821a5.69 5.69 0 0 1 1.328-.593 5.63 5.63 0 0 1 1.627-.228 6.13 6.13 0 0 1 2.945.687c.872.478 1.556 1.244 1.939 2.169a5.26 5.26 0 0 1 2.048-2.199 6.11 6.11 0 0 1 2.962-.671 5.98 5.98 0 0 1 2.683.54c.693.333 1.288.843 1.726 1.479.44.669.748 1.417.91 2.203.188.89.28 1.799.275 2.709v8.623a.81.81 0 0 1-.234.571.8.8 0 0 1-.566.237h-3.277a.79.79 0 0 1-.307-.061.81.81 0 0 1-.435-.437c-.04-.098-.061-.204-.061-.31v-8.465c.018-.673-.145-1.338-.472-1.924-.314-.536-.867-.805-1.66-.805a3.23 3.23 0 0 0-1.414.278 2.33 2.33 0 0 0-.91.774 3.17 3.17 0 0 0-.488 1.15 6.2 6.2 0 0 0-.146 1.378v7.61c-.001.222-.089.434-.244.59a.83.83 0 0 1-.586.244h-3.224a.82.82 0 0 1-.317-.063.83.83 0 0 1-.268-.181.84.84 0 0 1-.179-.271.83.83 0 0 1-.063-.319v-7.61l-.033-1.049a4.19 4.19 0 0 0-.229-1.183 2.26 2.26 0 0 0-.634-.952 1.86 1.86 0 0 0-1.285-.396c-.53-.027-1.057.089-1.528.335-.378.216-.688.534-.896.919-.213.405-.35.846-.405 1.301a11.03 11.03 0 0 0-.1 1.509v7.145a.81.81 0 0 1-.234.571c-.15.152-.354.237-.566.237h-3.28c-.213 0-.416-.085-.566-.237s-.235-.357-.235-.571V20.679c0-.212.083-.415.23-.567a.79.79 0 0 1 .557-.241z"/></g><defs><filter id="A" x="-12.93" y="-8.287" width="63.496" height="76.573" filterUnits="userSpaceOnUse" color-interpolation-filters="sRGB"><feFlood flood-opacity="0" result="A"/><feColorMatrix in="SourceAlpha" values="0 0 0 0 0 0 0 0 0 0 0 0 0 0 0 0 0 0 127 0" result="B"/><feOffset dx="-4" dy="4"/><feGaussianBlur stdDeviation="10"/><feComposite in2="B" operator="out"/><feColorMatrix values="0 0 0 0 0 0 0 0 0 0 0 0 0 0 0 0 0 0 0.25 0"/><feBlend in2="A"/><feBlend in="SourceGraphic"/></filter><linearGradient id="B" x1="26" y1="0" x2="26" y2="52" gradientUnits="userSpaceOnUse"><stop stop-color="#399"/><stop offset="1" stop-color="#2d8396"/></linearGradient><radialGradient id="C" cx="0" cy="0" r="1" gradientUnits="userSpaceOnUse" gradientTransform="translate(32.6165 29.9994) rotate(63.8254) scale(42.3301 30.2358)"><stop stop-color="#395f5f"/><stop offset="1" stop-color="#278888" stop-opacity="0"/></radialGradient><clipPath id="D"><path fill="#fff" d="M0 0h52v52H0z"/></clipPath><clipPath id="E"><path fill="#fff" transform="translate(62 11)" d="M0 0h148v33H0z"/></clipPath></defs></svg>