<svg xmlns="http://www.w3.org/2000/svg" viewBox="0 0 44 44"><defs><linearGradient id="linear-gradient" x1="3.62" y1="-750.53" x2="32.19" y2="-750.53" gradientTransform="matrix(1 0 0 -1 0 -710)" gradientUnits="userSpaceOnUse"><stop offset="0" stop-opacity="0"/><stop offset=".07" stop-opacity=".16"/><stop offset=".5" stop-opacity=".3"/><stop offset=".93" stop-opacity=".16"/><stop offset="1" stop-opacity="0"/></linearGradient><style>.cls-1{fill:none}.cls-4{fill:#77d9f7;fill-rule:evenodd}</style></defs><g id="icons"><path class="cls-1" d="M-.05.02h44v44h-44z"/><path fill="url(#linear-gradient)" d="M3.62 40.12H32.2v.82H3.62z"/><path d="M6.55 9.49h22.7a.72.72 0 01.72.72V40a.73.73 0 01-.72.73H6.55a.73.73 0 01-.72-.73V10.21a.72.72 0 01.72-.72z" fill="#a7e2f9"/><path class="cls-4" d="M25.69 35.41H9.63l.49-1.11h15.99l-.42 1.11zM25.69 31.67H9.63l.49-1.04h15.99l-.42 1.04zM25.69 27.99H9.63l.49-1.04h15.99l-.42 1.04zM25.69 24.32H9.63l.49-1.11h15.99l-.42 1.11zM25.69 20.58H9.63l.49-1.04h15.99l-.42 1.04zM17.78 16.9H9.63l.49-1.1h8.15l-.49 1.1z"/><path d="M37.74 14.19h-2v-4.9a4.23 4.23 0 10-8.46 0v4.9h-2v-4.9a6.19 6.19 0 0112.38 0z" fill="#3c549e"/><path d="M23.82 14.19h15.53a.73.73 0 01.72.72v13.57a.72.72 0 01-.72.72H23.82a.72.72 0 01-.72-.72V14.91a.72.72 0 01.72-.72z" fill="#485cc7"/><path d="M33.08 20.14a1.53 1.53 0 10-3.06 0 1.6 1.6 0 00.61 1.22v2.82h2v-2.82a1.67 1.67 0 00.45-1.22z" fill="#fff"/></g><path class="cls-1" d="M0 0h44v44H0z" id="frames"/></svg>