<?xml version="1.0" encoding="UTF-8"?>
<svg width="68px" height="55px" viewBox="0 0 68 55" version="1.1" xmlns="http://www.w3.org/2000/svg" xmlns:xlink="http://www.w3.org/1999/xlink">
    <!-- Generator: Sketch 53.2 (72643) - https://sketchapp.com -->
    <title>17-Navigation-borderless-account-optimized</title>
    <desc>Created with Sketch.</desc>
    <defs>
        <ellipse id="path-1" cx="7.40648649" cy="7.25333333" rx="6.98378378" ry="6.89066667"></ellipse>
        <linearGradient x1="50.3289474%" y1="-0.131578947%" x2="50.3289474%" y2="99.5394737%" id="linearGradient-3">
            <stop stop-color="#FFFFFF" offset="0%"></stop>
            <stop stop-color="#F0F0F0" offset="100%"></stop>
        </linearGradient>
        <linearGradient x1="50.3289474%" y1="-0.131578947%" x2="50.3289474%" y2="99.5394737%" id="linearGradient-4">
            <stop stop-color="#043CAE" offset="0%"></stop>
            <stop stop-color="#00339A" offset="100%"></stop>
        </linearGradient>
        <linearGradient x1="142.533276%" y1="12.3676471%" x2="142.533276%" y2="113.044118%" id="linearGradient-5">
            <stop stop-color="#FFD429" offset="0%"></stop>
            <stop stop-color="#FFCC00" offset="100%"></stop>
        </linearGradient>
        <ellipse id="path-6" cx="7.40648649" cy="7.43466667" rx="6.98378378" ry="6.89066667"></ellipse>
        <linearGradient x1="50.3289474%" y1="-0.466666667%" x2="50.3289474%" y2="101.533333%" id="linearGradient-8">
            <stop stop-color="#D02F44" offset="0%"></stop>
            <stop stop-color="#B12537" offset="100%"></stop>
        </linearGradient>
        <linearGradient x1="49.8903509%" y1="-1.27777431e-12%" x2="49.8903509%" y2="99.7179126%" id="linearGradient-9">
            <stop stop-color="#46467F" offset="0%"></stop>
            <stop stop-color="#3C3C6D" offset="100%"></stop>
        </linearGradient>
        <linearGradient x1="49.7765408%" y1="0.199451703%" x2="49.7765408%" y2="99.9239064%" id="linearGradient-10">
            <stop stop-color="#FFFFFF" offset="0%"></stop>
            <stop stop-color="#F0F0F0" offset="100%"></stop>
        </linearGradient>
        <ellipse id="path-11" cx="7.32378378" cy="7.25333333" rx="6.98378378" ry="6.89066667"></ellipse>
        <linearGradient x1="-12409.8214%" y1="2107.10526%" x2="-12409.8214%" y2="2100.46053%" id="linearGradient-13">
            <stop stop-color="#FFFFFF" offset="0%"></stop>
            <stop stop-color="#F0F0F0" offset="100%"></stop>
        </linearGradient>
        <linearGradient x1="50.0469925%" y1="-0.131578947%" x2="50.0469925%" y2="99.5394737%" id="linearGradient-14">
            <stop stop-color="#0A17A7" offset="0%"></stop>
            <stop stop-color="#030E88" offset="100%"></stop>
        </linearGradient>
        <linearGradient x1="49.8134262%" y1="100.149822%" x2="49.8134262%" y2="0%" id="linearGradient-15">
            <stop stop-color="#E6273E" offset="0%"></stop>
            <stop stop-color="#CF152B" offset="100%"></stop>
        </linearGradient>
        <linearGradient x1="50.019102%" y1="100%" x2="50.019102%" y2="0.0519173656%" id="linearGradient-16">
            <stop stop-color="#E6273E" offset="0%"></stop>
            <stop stop-color="#CF152B" offset="100%"></stop>
        </linearGradient>
        <linearGradient x1="50.1205755%" y1="100%" x2="50.1205755%" y2="0.0467335133%" id="linearGradient-17">
            <stop stop-color="#E6273E" offset="0%"></stop>
            <stop stop-color="#CF152B" offset="100%"></stop>
        </linearGradient>
        <linearGradient x1="50.0361989%" y1="100.057929%" x2="50.0361989%" y2="-0.215178342%" id="linearGradient-18">
            <stop stop-color="#E6273E" offset="0%"></stop>
            <stop stop-color="#CF152B" offset="100%"></stop>
        </linearGradient>
        <linearGradient x1="50.0469925%" y1="-0.131578947%" x2="50.0469925%" y2="99.5394737%" id="linearGradient-19">
            <stop stop-color="#E6273E" offset="0%"></stop>
            <stop stop-color="#CF152B" offset="100%"></stop>
        </linearGradient>
    </defs>
    <g id="Design" stroke="none" stroke-width="1" fill="none" fill-rule="evenodd">
        <g id="Navigation-v4_borderless-no-copy" transform="translate(-77.000000, -99.000000)">
            <g id="17-Navigation-borderless-account-optimized" transform="translate(77.000000, 93.000000)">
                <rect id="Rectangle" fill="#F2F5F7" x="2.83027027" y="38.7056" width="62.3302703" height="21.9594667" rx="2.18699994"></rect>
                <polygon id="Path" fill="#D3D5D8" points="59.1140541 52.0154667 25.0681081 52.0154667 26.9702703 47.6 61.0162162 47.6 59.1140541 52.0154667"></polygon>
                <g id="Clipped" transform="translate(6.432432, 42.613333)">
                    <mask id="mask-2" fill="white">
                        <use xlink:href="#path-1"></use>
                    </mask>
                    <g id="Oval"></g>
                    <g id="EU" mask="url(#mask-2)">
                        <g transform="translate(-2.756757, 0.000000)">
                            <polygon id="FlagBackground" fill="url(#linearGradient-3)" fill-rule="evenodd" points="0.385945946 0.362666667 19.9405405 0.362666667 19.9405405 14.144 0.385945946 14.144"></polygon>
                            <polygon id="Mask-Copy" fill="url(#linearGradient-4)" fill-rule="evenodd" points="0.385945946 0.362666667 19.9405405 0.362666667 19.9405405 14.144 0.385945946 14.144"></polygon>
                            <path d="M10.1632432,3.11893333 L9.50162162,3.30933333 L9.69459459,2.65653333 L9.50162162,2.0128 L10.1632432,2.2032 L10.8156757,2.0128 L10.6227027,2.65653333 L10.8156757,3.30933333 L10.1632432,3.11893333 Z M10.1632432,12.3034667 L9.50162162,12.4938667 L9.69459459,11.8501333 L9.50162162,11.1973333 L10.1632432,11.3877333 L10.8156757,11.1973333 L10.6227027,11.8501333 L10.8156757,12.4938667 L10.1632432,12.3034667 Z M14.812973,7.71573333 L14.1605405,7.90613333 L14.3535135,7.25333333 L14.1605405,6.60053333 L14.812973,6.79093333 L15.4745946,6.60053333 L15.2816216,7.25333333 L15.4745946,7.90613333 L14.812973,7.71573333 Z M5.51351351,7.71573333 L4.85189189,7.90613333 L5.03567568,7.25333333 L4.8427027,6.60053333 L5.50432432,6.79093333 L6.16594595,6.60053333 L5.97297297,7.25333333 L6.16594595,7.90613333 L5.51351351,7.71573333 Z M14.1972973,5.44 L13.5356757,5.6304 L13.7286486,4.98666667 L13.5356757,4.33386667 L14.1972973,4.52426667 L14.8497297,4.33386667 L14.6567568,4.98666667 L14.8497297,5.6304 L14.1972973,5.44 Z M6.12918919,9.97333333 L5.46756757,10.1637333 L5.66054054,9.51093333 L5.51351351,8.90346667 L6.17513514,9.09386667 L6.83675676,8.90346667 L6.64378378,9.5472 L6.83675676,10.2 L6.12918919,9.97333333 Z M12.4881081,3.6992 L11.8264865,3.8896 L12.0194595,3.2368 L11.8264865,2.59306667 L12.4881081,2.78346667 L13.1497297,2.59306667 L12.9567568,3.2368 L13.1497297,3.8896 L12.4881081,3.6992 Z M7.82918919,11.6506667 L7.17675676,11.8410667 L7.36972973,11.1973333 L7.17675676,10.5445333 L7.82918919,10.7349333 L8.49081081,10.5445333 L8.29783784,11.1973333 L8.49081081,11.8410667 L7.82918919,11.6506667 Z M14.1972973,9.97333333 L13.5356757,10.1637333 L13.7286486,9.51093333 L13.5356757,8.8672 L14.1972973,9.0576 L14.8497297,8.8672 L14.6567568,9.51093333 L14.8497297,10.1637333 L14.1972973,9.97333333 Z M6.12918919,5.44 L5.46756757,5.6304 L5.66054054,4.98666667 L5.51351351,4.30666667 L6.17513514,4.49706667 L6.83675676,4.30666667 L6.64378378,4.95946667 L6.83675676,5.6032 L6.12918919,5.44 Z M12.4881081,11.7141333 L11.8264865,11.9045333 L12.0194595,11.2608 L11.8264865,10.608 L12.4881081,10.7984 L13.1497297,10.608 L12.9567568,11.2608 L13.1497297,11.9045333 L12.4881081,11.7141333 Z M7.82918919,3.76266667 L7.17675676,3.95306667 L7.36972973,3.30026667 L7.17675676,2.65653333 L7.82918919,2.84693333 L8.49081081,2.65653333 L8.29783784,3.30026667 L8.49081081,3.95306667 L7.82918919,3.76266667 Z" id="Star-2" fill="url(#linearGradient-5)" fill-rule="nonzero"></path>
                        </g>
                    </g>
                </g>
                <rect id="Rectangle" fill="#F2F5F7" x="2.83027027" y="6.42826667" width="62.3302703" height="21.9594667" rx="2.18699994"></rect>
                <polygon id="Path" fill="#D3D5D8" points="59.1140541 19.7381333 25.0681081 19.7381333 26.9702703 15.3317333 61.0162162 15.3317333 59.1140541 19.7381333"></polygon>
                <g id="Clipped" transform="translate(6.432432, 9.973333)">
                    <mask id="mask-7" fill="white">
                        <use xlink:href="#path-6"></use>
                    </mask>
                    <g id="Oval"></g>
                    <g id="Group" mask="url(#mask-7)">
                        <g transform="translate(-2.756757, 0.000000)">
                            <polygon id="FlagBackground-2" fill="#FFFFFF" fill-rule="evenodd" points="0.385945946 0.544 19.9405405 0.544 19.9405405 14.3253333 0.385945946 14.3253333"></polygon>
                            <path d="M0.385945946,0.544 L19.9405405,0.544 L19.9405405,1.45066667 L0.385945946,1.45066667 L0.385945946,0.544 Z M0.385945946,2.35733333 L19.9405405,2.35733333 L19.9405405,3.264 L0.385945946,3.264 L0.385945946,2.35733333 Z M0.385945946,4.17066667 L19.9405405,4.17066667 L19.9405405,5.07733333 L0.385945946,5.07733333 L0.385945946,4.17066667 Z M0.385945946,5.984 L19.9405405,5.984 L19.9405405,6.89066667 L0.385945946,6.89066667 L0.385945946,5.984 Z M0.385945946,7.79733333 L19.9405405,7.79733333 L19.9405405,8.704 L0.385945946,8.704 L0.385945946,7.79733333 Z M0.385945946,9.61066667 L19.9405405,9.61066667 L19.9405405,10.5173333 L0.385945946,10.5173333 L0.385945946,9.61066667 Z M0.385945946,11.424 L19.9405405,11.424 L19.9405405,12.3306667 L0.385945946,12.3306667 L0.385945946,11.424 Z M0.385945946,13.2373333 L19.9405405,13.2373333 L19.9405405,14.144 L0.385945946,14.144 L0.385945946,13.2373333 Z" id="Rectangle-511" fill="url(#linearGradient-8)" fill-rule="nonzero"></path>
                            <polygon id="Rectangle-511-2" fill="url(#linearGradient-9)" fill-rule="evenodd" points="0.385945946 0.544 8.76648649 0.544 8.76648649 6.97226667 0.385945946 6.97226667"></polygon>
                            <path d="M1.7827027,2.38453333 C1.5238752,2.38453333 1.31405405,2.1775098 1.31405405,1.92213333 C1.31402936,1.80031434 1.36369593,1.68361163 1.45185907,1.59832964 C1.54002222,1.51304764 1.6592622,1.46636362 1.7827027,1.4688 C2.03645516,1.4688 2.24216216,1.67176425 2.24216216,1.92213333 C2.24463147,2.04392796 2.19731658,2.16157808 2.11088212,2.24856572 C2.02444767,2.33555335 1.9061679,2.3845577 1.7827027,2.38453333 Z M3.62054054,2.38453333 C3.49707535,2.3845577 3.37879557,2.33555335 3.29236112,2.24856572 C3.20592666,2.16157808 3.15861177,2.04392796 3.16108108,1.92213333 C3.16108108,1.67176425 3.36678809,1.4688 3.62054054,1.4688 C3.74398104,1.46636362 3.86322103,1.51304764 3.95138417,1.59832964 C4.03954731,1.68361163 4.08921388,1.80031434 4.08918919,1.92213333 C4.09084649,2.15769077 3.91276477,2.3568257 3.67567568,2.38453333 L3.62054054,2.38453333 Z M5.45837838,2.38453333 C5.19955088,2.38453333 4.98972973,2.1775098 4.98972973,1.92213333 C5.03371803,1.70620135 5.22596221,1.55085221 5.44918919,1.55085221 C5.67241617,1.55085221 5.86466035,1.70620135 5.90864865,1.92213333 C5.91152605,2.15167263 5.74329509,2.34854197 5.51351351,2.38453333 L5.45837838,2.38453333 Z M7.29621622,2.38453333 C7.03738871,2.38453333 6.82756757,2.1775098 6.82756757,1.92213333 C6.82754287,1.80031434 6.87720944,1.68361163 6.96537259,1.59832964 C7.05353573,1.51304764 7.17277572,1.46636362 7.29621622,1.4688 C7.54996867,1.4688 7.75567568,1.67176425 7.75567568,1.92213333 C7.762125,2.15615198 7.58691613,2.35652721 7.35135135,2.38453333 L7.29621622,2.38453333 Z M2.75675676,3.30026667 C2.63331626,3.30270305 2.51407627,3.25601902 2.42591313,3.17073703 C2.33774998,3.08545504 2.28808341,2.96875232 2.28810811,2.84693333 C2.33209641,2.63100135 2.52434059,2.47565221 2.74756757,2.47565221 C2.97079455,2.47565221 3.16303873,2.63100135 3.20702703,2.84693333 C3.20707707,3.09380398 3.00691346,3.29532926 2.75675676,3.30026667 Z M4.59459459,3.30026667 C4.47115409,3.30270305 4.35191411,3.25601902 4.26375096,3.17073703 C4.17558782,3.08545504 4.12592125,2.96875232 4.12594595,2.84693333 C4.12594595,2.59155687 4.33576709,2.38453333 4.59459459,2.38453333 C4.71805979,2.38450897 4.83633956,2.43351332 4.92277402,2.52050095 C5.00920847,2.60748859 5.05652336,2.72513871 5.05405405,2.84693333 C5.05405405,3.09730242 4.84834705,3.30026667 4.59459459,3.30026667 L4.59459459,3.30026667 Z M6.43243243,3.30026667 C6.17867998,3.30026667 5.97297297,3.09730242 5.97297297,2.84693333 C5.97050367,2.72513871 6.01781856,2.60748859 6.10425301,2.52050095 C6.19068746,2.43351332 6.30896724,2.38450897 6.43243243,2.38453333 C6.69125993,2.38453333 6.90108108,2.59155687 6.90108108,2.84693333 C6.90110578,2.96875232 6.85143921,3.08545504 6.76327606,3.17073703 C6.67511292,3.25601902 6.55587293,3.30270305 6.43243243,3.30026667 Z M7.35135135,4.20693333 C7.13250137,4.16353154 6.97505291,3.97385062 6.97505291,3.7536 C6.97505291,3.53334938 7.13250137,3.34366846 7.35135135,3.30026667 C7.57020133,3.34366846 7.72764979,3.53334938 7.72764979,3.7536 C7.72764979,3.97385062 7.57020133,4.16353154 7.35135135,4.20693333 Z M5.51351351,4.20693333 C5.25468601,4.20693333 5.04486486,3.9999098 5.04486486,3.74453333 C5.04486486,3.48915687 5.25468601,3.28213333 5.51351351,3.28213333 C5.77234102,3.28213333 5.98216216,3.48915687 5.98216216,3.74453333 C5.98716393,3.87028011 5.94000562,3.99260656 5.851569,4.08328589 C5.76313238,4.17396522 5.64105764,4.22516347 5.51351351,4.22506667 L5.51351351,4.20693333 Z M3.67567568,4.20693333 C3.4568257,4.16353154 3.29937724,3.97385062 3.29937724,3.7536 C3.29937724,3.53334938 3.4568257,3.34366846 3.67567568,3.30026667 C3.86173325,3.26336818 4.05197805,3.34082568 4.1575189,3.49644743 C4.26305974,3.65206918 4.26305974,3.85513082 4.1575189,4.01075257 C4.05197805,4.16637432 3.86173325,4.24383182 3.67567568,4.20693333 Z M1.83783784,4.20693333 C1.61898786,4.16353154 1.4615394,3.97385062 1.4615394,3.7536 C1.4615394,3.53334938 1.61898786,3.34366846 1.83783784,3.30026667 C2.05668782,3.34366846 2.21413628,3.53334938 2.21413628,3.7536 C2.21413628,3.97385062 2.05668782,4.16353154 1.83783784,4.20693333 Z M2.75675676,5.1136 C2.49792926,5.1136 2.28810811,4.90657647 2.28810811,4.6512 C2.33209641,4.43526802 2.52434059,4.27991887 2.74756757,4.27991887 C2.97079455,4.27991887 3.16303873,4.43526802 3.20702703,4.6512 C3.21453247,4.77538774 3.17100285,4.8973205 3.08627196,4.98945238 C3.00154106,5.08158425 2.88275788,5.13614184 2.75675676,5.1408 L2.75675676,5.1136 Z M4.59459459,5.1136 C4.33576709,5.1136 4.12594595,4.90657647 4.12594595,4.6512 C4.12592125,4.52938101 4.17558782,4.4126783 4.26375096,4.3273963 C4.35191411,4.24211431 4.47115409,4.19543028 4.59459459,4.19786667 C4.84834705,4.19786667 5.05405405,4.40083091 5.05405405,4.6512 C5.06433481,4.77758137 5.02050541,4.9024354 4.9332007,4.9954673 C4.84589599,5.0884992 4.72309508,5.14120642 4.59459459,5.1408 L4.59459459,5.1136 Z M6.43243243,5.1136 C6.30896724,5.11362437 6.19068746,5.06462002 6.10425301,4.97763238 C6.01781856,4.89064475 5.97050367,4.77299463 5.97297297,4.6512 C5.97297297,4.40083091 6.17867998,4.19786667 6.43243243,4.19786667 C6.55587293,4.19543028 6.67511292,4.24211431 6.76327606,4.3273963 C6.85143921,4.4126783 6.90110578,4.52938101 6.90108108,4.6512 C6.9086825,4.77847701 6.86268372,4.90320284 6.77395772,4.99589541 C6.68523172,5.08858799 6.56165298,5.14102079 6.43243243,5.1408 L6.43243243,5.1136 Z M7.35135135,6.02026667 C7.22791085,6.02270305 7.10867086,5.97601902 7.02050772,5.89073703 C6.93234458,5.80545504 6.88267801,5.68875232 6.8827027,5.56693333 C6.8827027,5.31155687 7.09252385,5.10453333 7.35135135,5.10453333 C7.47481654,5.10450897 7.59309632,5.15351332 7.67953077,5.24050095 C7.76596523,5.32748859 7.81328012,5.44513871 7.81081081,5.56693333 C7.82109156,5.69331471 7.77726216,5.81816874 7.68995745,5.91120064 C7.60265274,6.00423254 7.47985184,6.05693976 7.35135135,6.05653333 L7.35135135,6.02026667 Z M5.51351351,6.02026667 C5.39007301,6.02270305 5.27083303,5.97601902 5.18266988,5.89073703 C5.09450674,5.80545504 5.04484017,5.68875232 5.04486486,5.56693333 C5.08885317,5.35100135 5.28109735,5.19565221 5.50432432,5.19565221 C5.7275513,5.19565221 5.91979548,5.35100135 5.96378378,5.56693333 C5.97395484,5.69175311 5.93134502,5.81516443 5.84605959,5.90789928 C5.76077416,6.00063413 5.64041038,6.05443165 5.51351351,6.05653333 L5.51351351,6.02026667 Z M3.67567568,6.02026667 C3.42192322,6.02026667 3.21621622,5.81730242 3.21621622,5.56693333 C3.21374691,5.44513871 3.2610618,5.32748859 3.34749625,5.24050095 C3.43393071,5.15351332 3.55221048,5.10450897 3.67567568,5.10453333 C3.79996903,5.10453333 3.91917164,5.15325034 4.00706031,5.23996716 C4.09494898,5.32668398 4.14432432,5.44429723 4.14432432,5.56693333 C4.15476935,5.69490808 4.10972675,5.82125112 4.02038053,5.91459163 C3.93103431,6.00793215 3.80576459,6.0595154 3.67567568,6.05653333 L3.67567568,6.02026667 Z M1.83783784,6.02026667 C1.71439734,6.02270305 1.59515735,5.97601902 1.50699421,5.89073703 C1.41883106,5.80545504 1.36916449,5.68875232 1.36918919,5.56693333 C1.36918919,5.31155687 1.57901034,5.10453333 1.83783784,5.10453333 C1.96130303,5.10450897 2.07958281,5.15351332 2.16601726,5.24050095 C2.25245171,5.32748859 2.2997666,5.44513871 2.2972973,5.56693333 C2.30947216,5.7033795 2.25846763,5.83794134 2.1585353,5.93301982 C2.05860296,6.0280983 1.92045876,6.07349797 1.7827027,6.05653333 L1.83783784,6.02026667 Z" id="Oval-43" fill="url(#linearGradient-10)" fill-rule="nonzero"></path>
                        </g>
                    </g>
                </g>
                <rect id="Rectangle" fill="#485CC7" x="0" y="22.5669333" width="67.9448649" height="21.9594667" rx="2.18699994"></rect>
                <polygon id="Path" fill="#FFFFFF" points="61.7972973 35.8768 22.2378378 35.8768 24.1308108 31.4613333 63.6902703 31.4613333"></polygon>
                <g id="Clipped" transform="translate(3.675676, 26.293333)">
                    <mask id="mask-12" fill="white">
                        <use xlink:href="#path-11"></use>
                    </mask>
                    <g id="Oval"></g>
                    <g id="Group" mask="url(#mask-12)">
                        <g transform="translate(-2.756757, 0.000000)">
                            <polygon id="FlagBackground-3" fill="url(#linearGradient-13)" points="0.303243243 0.362666667 19.8578378 0.362666667 19.8578378 14.144 0.303243243 14.144"></polygon>
                            <polygon id="Mask-Copy-2" fill="url(#linearGradient-14)" points="0.303243243 0.362666667 19.8578378 0.362666667 19.8578378 14.144 0.303243243 14.144"></polygon>
                            <polygon id="Path" fill="#FFFFFF" points="19.8578378 0.362666667 18.7735135 0.362666667 12.4145946 4.5968 12.4145946 0.362666667 7.75567568 0.362666667 7.75567568 4.5968 1.39675676 0.362666667 0.303243243 0.362666667 0.303243243 1.85866667 4.96216216 4.95946667 0.303243243 4.95946667 0.303243243 9.5472 4.96216216 9.5472 0.303243243 12.648 0.303243243 14.144 1.39675676 14.144 7.75567568 9.90986667 7.75567568 14.144 12.4145946 14.144 12.4145946 9.90986667 18.7735135 14.144 19.8578378 14.144 19.8578378 12.648 15.1989189 9.5472 19.8578378 9.5472 19.8578378 4.95946667 15.1989189 4.95946667 19.8578378 1.85866667"></polygon>
                            <path d="M19.8578378,0.362666667 L19.6372973,0.362666667 L13.2048649,4.53333333 C13.0982889,4.60343669 13.0694899,4.74551164 13.1405406,4.85066665 C13.2115912,4.95582165 13.3555861,4.98423666 13.4621622,4.91413333 L19.8945946,0.770666667 L19.8578378,0.362666667 Z" id="Path" fill="url(#linearGradient-15)"></path>
                            <path d="M19.8578378,13.2373333 L14.4086486,9.61066667 C14.3020726,9.54056332 14.1580777,9.56897832 14.087027,9.67413333 C14.0159763,9.77928835 14.0447753,9.92136332 14.1513514,9.99146667 L19.8578378,13.7904 L19.8578378,13.2373333 Z" id="Path" fill="url(#linearGradient-16)"></path>
                            <path d="M6.66216216,9.5472 L0.303243243,13.7088 L0.303243243,14.144 L0.477837838,14.144 L6.91027027,9.928 C6.97921287,9.88265109 7.01839817,9.80445693 7.01306544,9.72287251 C7.00773271,9.64128809 6.95869213,9.56870802 6.88441679,9.53247251 C6.81014146,9.496237 6.72191558,9.50185109 6.65297297,9.5472 L6.66216216,9.5472 Z" id="Path" fill="url(#linearGradient-17)"></path>
                            <path d="M6.02810811,4.53333333 L0.303243243,0.725333333 L0.303243243,1.2784 L5.76162162,4.90506667 C5.87254509,4.96802117 6.01350029,4.94097865 6.09243243,4.8416 C6.15383268,4.73769978 6.12611218,4.6048526 6.02810811,4.53333333 L6.02810811,4.53333333 Z" id="Path" fill="url(#linearGradient-18)"></path>
                            <polygon id="Rectangle-2-Copy-3" fill="url(#linearGradient-19)" points="0.303243243 8.63146667 8.68378378 8.63146667 8.68378378 14.144 11.4772973 14.144 11.4772973 8.63146667 19.8578378 8.63146667 19.8578378 5.8752 11.4772973 5.8752 11.4772973 0.362666667 8.68378378 0.362666667 8.68378378 5.8752 0.303243243 5.8752 0.303243243 8.63146667"></polygon>
                        </g>
                    </g>
                </g>
                <polygon id="Path" points="0 0.1632 68 0.1632 68 67.2565333 0 67.2565333"></polygon>
            </g>
        </g>
    </g>
</svg>