<svg xmlns="http://www.w3.org/2000/svg" viewBox="0 0 44 44"><defs><linearGradient id="linear-gradient" x1="6.72" y1="14.09" x2="34.38" y2="14.09" gradientTransform="translate(0 28)" gradientUnits="userSpaceOnUse"><stop offset="0" stop-opacity="0"/><stop offset=".07" stop-opacity=".16"/><stop offset=".5" stop-opacity=".3"/><stop offset=".93" stop-opacity=".16"/><stop offset="1" stop-opacity="0"/></linearGradient><style>.cls-4{fill:#3c549e}.cls-7{fill:none}</style></defs><g id="icons"><path fill="url(#linear-gradient)" d="M6.72 41.69h27.66v.8H6.72z"/><path d="M11.26 1.61H29.6a1.67 1.67 0 011.68 1.67v37a1.7 1.7 0 01-1.68 1.61H11.5a1.67 1.67 0 01-1.67-1.67V3.1a1.46 1.46 0 011.43-1.49z" fill="#77d9f7"/><path d="M30.86 40.08V3.16a1.66 1.66 0 00-1.26-1.61h-2l-16.96 40.2h18.54a1.63 1.63 0 001.68-1.67z" style="isolation:isolate" opacity=".32" fill="#fff"/><path class="cls-4" d="M29.24 2a1.61 1.61 0 011.62 1.62v36.2a1.6 1.6 0 01-1.62 1.61H11.86a1.6 1.6 0 01-1.61-1.61V3.46A1.45 1.45 0 0111.68 2h17.56m0-.71H11.68a2.14 2.14 0 00-2.15 2.17v36.38a2.33 2.33 0 002.33 2.33h17.38a2.33 2.33 0 002.33-2.33V3.64a2.33 2.33 0 00-2.33-2.33z"/><path class="cls-4" d="M15.83 1.78h9.44v.78a1 1 0 01-1 1h-7.42a1.05 1.05 0 01-1-1v-.78z"/><path d="M37.21 7.86c-8-.39-9.38-3.43-9.45-3.43s-1.49 3-9.44 3.43a53.78 53.78 0 00.12 7.14c.33 4.6 2.53 10.1 9.39 12.17 6.73-2.07 8.93-7.57 9.25-12.17a52.16 52.16 0 00.13-7.14z" fill="#485cc7"/><path fill="#fff" d="M27.5 21l-4.14-4.86 1.56-1.29 2.33 2.72 3.94-6.22 1.75 1.1L27.5 21z"/></g><g id="frames"><path class="cls-7" d="M0 0h44v44H0z"/><path class="cls-7" d="M0 0h44v44H0z"/></g></svg>