<svg xmlns="http://www.w3.org/2000/svg" viewBox="0 0 80 80"><ellipse cx="40" cy="76.08" rx="10.34" ry=".51" opacity=".1"/><path d="M38.41 44.73h3.18V76a.21.21 0 01-.21.21h-2.77a.21.21 0 01-.21-.21V44.73z" fill="#3c549e"/><path d="M40 44.12a17.77 17.77 0 1117.77-17.76A17.79 17.79 0 0140 44.12z" fill="#445dcb"/><path d="M40 10.64a15.72 15.72 0 11-15.72 15.72A15.74 15.74 0 0140 10.64m0-4.1a19.82 19.82 0 1019.82 19.82A19.82 19.82 0 0040 6.54z" fill="#58dbf9"/><path fill="#231f20" stroke="#58dbf9" stroke-miterlimit="10" stroke-width="5.74" d="M26.7 12.28l25.03 27.11"/><path fill="none" d="M0 0h80v80H0z"/></svg>