<svg xmlns="http://www.w3.org/2000/svg" viewBox="0 0 44 44"><defs><linearGradient id="linear-gradient" x1="2.31" y1="-750.73" x2="31.37" y2="-750.73" gradientTransform="matrix(1 0 0 -1 0 -710)" gradientUnits="userSpaceOnUse"><stop offset="0" stop-opacity="0"/><stop offset=".07" stop-opacity=".16"/><stop offset=".5" stop-opacity=".3"/><stop offset=".93" stop-opacity=".16"/><stop offset="1" stop-opacity="0"/></linearGradient><style>.cls-3{fill:#77d9f7;fill-rule:evenodd}.cls-4{fill:#3c549e}</style></defs><g id="icons"><path fill="url(#linear-gradient)" d="M2.31 40.32h29.06v.84H2.31z"/><path d="M5.3 9.16h23.08a.73.73 0 01.74.73v30.32a.74.74 0 01-.74.73H5.3a.74.74 0 01-.74-.73V9.89a.73.73 0 01.74-.73z" fill="#a7e2f9"/><path class="cls-3" d="M24.76 35.52H8.43l.5-1.12h16.26l-.43 1.12zM24.76 31.71H8.43l.5-1.05h16.26l-.43 1.05zM24.76 27.98H8.43l.5-1.06h16.26l-.43 1.06zM24.76 24.24H8.43l.5-1.13h16.26l-.43 1.13zM24.76 20.44H8.43l.5-1.06h16.26l-.43 1.06zM16.72 16.7H8.43l.5-1.13h8.28l-.49 1.13z"/><path class="cls-4" transform="rotate(-36.03 35.54665 26.24876)" d="M34.44 19.08h2.22v14.33h-2.22z"/><path class="cls-4" d="M41 33.47a1.74 1.74 0 00.37-2.4l-5.81-7.85-2.78 2 5.81 7.84a1.75 1.75 0 002.41.41z"/><path class="cls-4" transform="rotate(-35.9 31.81624 20.99167)" d="M30.13 20.51h3.4v1.24h-3.4z"/><circle cx="25.74" cy="12.59" r="7.97" style="isolation:isolate" opacity=".7" fill="#fff"/><path d="M17.7 17.91a9.59 9.59 0 102.72-13.29 9.57 9.57 0 00-2.72 13.29zm1.8-1.18a7.45 7.45 0 1110.38 2.16 7.59 7.59 0 01-10.38-2.16z" fill="#fff"/><path d="M17.15 18.28A10.26 10.26 0 0034.26 7a10.18 10.18 0 00-14.21-2.9 10.3 10.3 0 00-2.9 14.21zM19.06 17a8 8 0 1111.06 2.29A8 8 0 0119.06 17z" fill="#485cc7"/></g><path fill="none" d="M0 0h44v44H0z" id="frames"/></svg>