<svg xmlns="http://www.w3.org/2000/svg" viewBox="0 0 44 44"><defs><linearGradient id="linear-gradient" x1="6.79" y1="381.4" x2="37.21" y2="381.4" gradientTransform="matrix(1 0 0 -1 0 420)" gradientUnits="userSpaceOnUse"><stop offset="0" stop-opacity="0"/><stop offset=".07" stop-opacity=".16"/><stop offset=".5" stop-opacity=".3"/><stop offset=".93" stop-opacity=".16"/><stop offset="1" stop-opacity="0"/></linearGradient><style>.cls-2{fill:#3c549e}.cls-4{fill:#a7e2f9}.cls-5{fill:#485fc4}</style></defs><g id="icons"><path style="isolation:isolate" opacity=".7" fill="url(#linear-gradient)" d="M6.79 38.2h30.42v.8H6.79z"/><path class="cls-2" d="M33.26 36.28h2.1v2.46h-2.1zM8.59 36.28h2.16v2.46H8.59z"/><path d="M7.67 5.14h28.66a.7.7 0 01.7.7v30.4a.7.7 0 01-.7.7H7.67a.7.7 0 01-.7-.7V5.84a.7.7 0 01.7-.7z" fill="#77d9f7"/><path class="cls-4" d="M9.37 6.88h25.27v8.2H9.37zM9.37 16.88h25.27v8.2H9.37zM9.37 26.82h25.27v8.2H9.37z"/><path class="cls-5" d="M25.23 9.76v.95h-6.46v-.95h-1.38v2.63h9.22V9.76h-1.38zM25.23 19.57v.96h-6.46v-.96h-1.38v2.58h9.22v-2.58h-1.38zM25.23 29.34v.95h-6.46v-.95h-1.38v2.63h9.22v-2.63h-1.38z"/></g><path fill="none" d="M0 0h44v44H0z" id="frames"/></svg>