<svg width="133" height="27" viewBox="0 0 133 27" fill="none" xmlns="http://www.w3.org/2000/svg">
<path d="M0 26.6087H4.06957L6.02609 21.7565H20.4652L22.3826 26.6087H26.4522L15.3391 0H11.113L0 26.6087ZM9.86087 12.2478L10.5261 10.5261C11.6609 7.7087 12.6391 5.36087 13.2261 3.6C13.8522 5.36087 14.8304 7.7087 15.9652 10.5261L16.6696 12.2478H9.86087ZM37.3304 27C42.3783 27 46.3696 24.2217 47.6217 19.213H43.5913C42.7304 21.9522 40.5 23.4783 37.487 23.4783C33.3391 23.4783 30.7565 20.5435 30.7565 16.2783C30.7565 12.2087 33.1826 9.07826 37.4478 9.07826C40.5 9.07826 42.6522 10.487 43.5522 13.6565H47.5826C46.6826 8.53043 42.7304 5.55652 37.5261 5.55652C31.4609 5.55652 26.7652 9.9 26.7652 16.2783C26.7652 22.4609 30.8348 27 37.3304 27ZM50.6348 26.6087H54.5478V15.9261C54.5478 12.2478 55.6826 9.9 59.7913 9.9H60.3783V5.55652H60.0261C57.6 5.55652 55.6826 6.73043 54.3913 8.56956L54.2348 5.94783H50.6348V26.6087ZM71.8435 27C78.1044 27 82.6826 22.4609 82.6826 16.2783C82.6826 10.1739 78.1826 5.55652 71.8435 5.55652C65.7391 5.55652 61.0044 9.93913 61.0044 16.2783C61.0044 22.4609 65.5826 27 71.8435 27ZM85.5783 26.6087H89.4913V14.713C89.4913 11.3478 91.6435 9.11739 95.1261 9.11739C98.3348 9.11739 99.6652 10.9565 99.6652 14.3217V26.6087H103.578V13.5783C103.578 8.45217 100.839 5.55652 95.9478 5.55652C93.1304 5.55652 90.9391 6.41739 89.3348 8.1L89.0609 5.94783H85.5783V26.6087ZM124.865 27C127.37 27 129.326 26.5304 130.813 25.3174C132.222 24.1826 132.965 22.4609 132.965 20.5043C132.965 18.6652 132.143 16.8652 130.422 15.9261C129.13 15.2217 127.722 14.9478 126.196 14.713C124.591 14.4783 122.713 14.2826 121.696 13.8913C120.678 13.5 120.13 12.913 120.13 11.7783C120.13 10.0174 121.657 8.72609 124.239 8.72609C126.665 8.72609 128.544 9.9 128.778 12.287H132.496C132.261 7.78696 129.052 5.55652 124.239 5.55652C119.817 5.55652 116.374 7.86522 116.374 12.2478C116.374 14.1261 117.117 15.8087 118.996 16.7087C120.209 17.2957 121.617 17.6087 123.652 17.9217C125.609 18.2348 126.587 18.3913 127.526 18.7435C128.504 19.0957 129.13 19.6435 129.13 20.9739C129.13 22.8913 127.291 23.8304 124.865 23.8304C121.93 23.8304 119.935 22.7348 119.543 20.2304H115.748C116.139 25.1217 119.817 27 124.865 27ZM107.843 26.6087H111.717V5.94783H107.843V26.6087ZM71.8826 23.4783C67.8913 23.4783 65.0348 20.5435 65.0348 16.2391C65.0348 12.2087 67.5783 9.07826 71.8435 9.07826C76.0304 9.07826 78.6913 12.1696 78.6913 16.2391C78.6913 20.387 75.9131 23.4783 71.8826 23.4783ZM7.35652 18.4304L8.6087 15.3783H17.9217L19.1348 18.4304H7.35652Z" fill="#00204D"/>
</svg>
