<?xml version="1.0" encoding="utf-8"?><svg xmlns="http://www.w3.org/2000/svg" xmlns:xlink="http://www.w3.org/1999/xlink"><symbol viewBox="0 0 13 11" id="arrow-accordian" xmlns="http://www.w3.org/2000/svg"><g fill="none" fill-rule="evenodd"><path fill="#000" d="M0 5h12v1H0z"/><path stroke="#000" d="M7 10.5l5.277-5.055L7 .5"/></g></symbol><symbol viewBox="-11 9 22 12" id="arrow-down" xmlns="http://www.w3.org/2000/svg"><path fill="none" d="M9 11l-9 7.8-9-7.8"/></symbol><symbol viewBox="0 0 40 20" id="arrow-drop" xmlns="http://www.w3.org/2000/svg"><path fill="none" stroke="#000" stroke-width="3" stroke-linecap="round" stroke-linejoin="round" d="M32.4 4.6L19.9 15.4 7.4 4.6"/></symbol><symbol viewBox="0 0 43 92" id="arrow-left" xmlns="http://www.w3.org/2000/svg"><path d="M41.174 90L3 46 41.174 2" stroke="#949494" stroke-width="4" fill="none"/></symbol><symbol viewBox="0 0 431.213 464.213" id="arrow-left-back" xmlns="http://www.w3.org/2000/svg"><path fill="none" d="M-1-1h433.213v466.213H-1z"/><path stroke="null" d="M131.059 368.713L152.18 347.5l-93.996-94.394h417.028v-30H58.185l93.996-94.393L131.06 107.5 1 238.107z"/></symbol><symbol viewBox="0 0 35.414 35.414" id="arrow-right-medium" xmlns="http://www.w3.org/2000/svg"><path fill="#5a5a5a" d="M27.051 17L9.905 0 8.417 1.414l16.257 16.293L8.363 34l1.551 1.414 17.137-17z"/></symbol><symbol viewBox="0 0 12 22" id="arrow-right-small" xmlns="http://www.w3.org/2000/svg"><path d="M2 2l7.81 9.002L2 20.004"/></symbol><symbol viewBox="-11 9 22 12" id="arrow-up" xmlns="http://www.w3.org/2000/svg"><path fill="none" stroke="#666" stroke-width="3" stroke-linecap="round" stroke-linejoin="round" d="M-9 18.8L0 11l9 7.8"/></symbol><symbol style="background:#000" viewBox="0 0 40 40" id="black-left-right-arrow" xmlns="http://www.w3.org/2000/svg"><defs><path id="aia" d="M0 0h40v40H0z"/><mask id="aib" maskContentUnits="userSpaceOnUse" maskUnits="objectBoundingBox" x="0" y="0" width="40" height="40" fill="#fff"><use xlink:href="#aia"/></mask></defs><g fill="none" fill-rule="evenodd"><use stroke="#FFF" mask="url(#aib)" stroke-width="2" xlink:href="#aia"/><path fill="#FFF" d="M14 20h12v1H14z"/><path stroke="#FFF" d="M21 25.5l5.277-5.055L21 15.5"/></g></symbol><symbol style="background:#000" viewBox="0 0 40 40" id="black-right-left-arrow" xmlns="http://www.w3.org/2000/svg"><defs><path id="aja" d="M0 0h40v40H0z"/><mask id="ajb" maskContentUnits="userSpaceOnUse" maskUnits="objectBoundingBox" x="0" y="0" width="40" height="40" fill="#fff"><use xlink:href="#aja"/></mask></defs><g class="ajcls-2"><path data-name="path-1" class="ajcls-3" stroke="#FFF" d="M1 1h40v40H1z"/><use stroke="#FFF" mask="url(#ajb)" stroke-width="2" xlink:href="#aja"/><path class="ajcls-4" stroke="#FFF" d="M20 15.5l-5.28 5.05L20 25.5"/><path class="ajcls-1" fill="#fff" d="M15 20h12v1H15z"/></g></symbol><symbol id="branding" viewBox="-291 263.3 259 70" xml:space="preserve" xmlns="http://www.w3.org/2000/svg"><style>.akst0{fill:#fff}.akst3{fill:#1d1d1b}</style><path class="akst0" d="M-282.1 272.5h233.2v43.9h-233.2z"/><path class="akst0" d="M-44.5 280.3v40.5h-229.8v3.4h233.2v-43.9z"/><image width="1096" height="1096" xmlns:xlink="http://www.w3.org/1999/xlink" xlink:href="#" transform="matrix(.2396 0 0 .2393 -298 390.28)" overflow="visible" id="akLayer_1_1_"/><path class="akst3" d="M-262.1 286.8l-5.8 15.3h4.5l.8-2.2h6l.8 2.2h4.5l-5.8-15.3h-5zm.5 9.7l2-5.8 1.9 5.8h-3.9zm11.3-9.7h3.5v15.3h-3.5zm6.1 0h3.5v15.3h-3.5zm11.7 3.5h4.3v11.9h3.9v-11.9h4.3v-3.4h-12.5zm21.8.5c-1.8 0-3.1.8-3.8 1.6v-5.6h-3.5v15.3h3.5v-7.2c.4-.5 1.1-1.1 2.1-1.1 1.1 0 1.8.4 1.8 1.8v6.6h3.6v-7.9c0-2.1-1.2-3.5-3.7-3.5zm7.9-4.8c-1.1 0-2 .9-2 2s.9 2.1 2 2c1.1 0 2-.9 2-2s-.9-2-2-2zm-1.7 16.1v.1h3.5v-11.1h-3.5zm13.4-11.2c-1.8 0-3.1.8-3.8 1.6v-1.4h-3.5v11.1h3.5V295c.5-.5 1.1-1.1 2.2-1.1s1.8.4 1.8 1.8v6.6h3.5v-7.9c0-2-1.2-3.5-3.7-3.5zm13.7 1.5c-.9-1.1-2.1-1.6-3.3-1.6-2.8 0-4.9 1.9-4.9 5.6s2.2 5.6 4.9 5.6c1.3 0 2.4-.5 3.3-1.6v.9c0 2-1.6 2.5-2.8 2.5-1.3 0-2.6-.4-3.4-1.3l-1.5 2.5c1.4 1.2 3 1.7 4.9 1.7 2.7 0 6.3-1 6.3-5.5v-10.1h-3.5v1.3zm0 5.5c-.4.6-1.3.9-2.1 1-1.4 0-2.4-.9-2.4-2.5s1-2.5 2.4-2.5c.7 0 1.7.4 2.1 1v3zm8.9-3.7c0-.5.6-.8 1.4-.8 1.4 0 2.6.6 3.3 1.2l1.4-2.3c-1.2-.9-2.7-1.5-4.6-1.5-3.1 0-4.8 1.7-4.8 3.7 0 4.5 6.5 3.1 6.5 4.5 0 .5-.4.8-1.5.8-1.3 0-3.1-.8-3.9-1.5l-1.5 2.4c1.2 1.1 3.2 1.7 5.1 1.8 3.2 0 5.1-1.6 5.1-3.7 0-4.6-6.5-3.3-6.5-4.6zm25.9-1.7h-6.4v-5.7h-4v15.4h4V296h6.4v6.1h4v-15.3h-4zm11.4-1.6c-1.7 0-3.6.5-5 1.7l1.3 2.2c.8-.8 2-1.2 3.1-1.2 1.5 0 2.3.6 2.3 1.6v1.3c-.6-.8-1.9-1.3-3.4-1.3-1.7 0-3.8.9-3.8 3.6 0 2.6 2.1 3.7 3.8 3.7 1.4 0 2.7-.6 3.4-1.4v1.1h3.5v-6.9c0-3.4-2.5-4.4-5.2-4.4zm1.7 8.4c-.3.5-1.1.8-2 .8-1 0-1.8-.4-1.8-1.3s.9-1.3 1.8-1.3c.8 0 1.6.3 2 .8v1zm7.9-13.3c-1.1 0-2 .9-2 2 0 1.2.9 2.1 2 2 1.1 0 2-.9 2-2s-.9-2-2-2zm-1.7 5.1h3.5v11.1h-3.5zm13.1-.3c-1.4 0-2.8.8-3.5 1.7v-1.4h-3.5v11.1h3.5v-7.1c.5-.6 1.7-1 2.6-1 .4 0 .7.1.9.1v-3.4zm2.2 7.3c-1.2 0-2.2 1-2.2 2.2 0 1.2 1 2.1 2.2 2.2 1.2 0 2.2-1 2.2-2.2 0-1.2-1-2.2-2.2-2.2z"/><path class="akst3" d="M-44.5 275.9v-7.8h-242v52.7h7.8v7.8h242v-52.7h-7.8zm-237.6 40.5v-43.9h233.2v43.9h-233.2zm241 7.8h-233.2v-3.4h229.8v-40.5h3.4v43.9z"/></symbol><symbol viewBox="0 0 30 31" id="checkbox-checked" xmlns="http://www.w3.org/2000/svg"><rect x="10" y="10.52" width="30" height="30" rx="3" transform="translate(-10 -10)" fill-rule="evenodd"/></symbol><symbol viewBox="0 0 46 47" id="circle" xmlns="http://www.w3.org/2000/svg"><path d="M23 0C10.361 0 .121 10.24.121 22.879c0 12.639 10.24 22.879 22.879 22.879 12.639 0 22.879-10.24 22.879-22.88C45.879 10.24 35.639 0 23 0zm11.218 28.885a1.108 1.108 0 010 1.568l-3.653 3.644a1.108 1.108 0 01-1.569 0L23 28.045l-6.006 6.052a1.108 1.108 0 01-1.568 0l-3.644-3.653a1.108 1.108 0 010-1.569l6.052-5.996-6.052-6.006a1.108 1.108 0 010-1.568l3.653-3.653a1.108 1.108 0 011.569 0L23 17.712l6.006-6.051a1.108 1.108 0 011.568 0l3.653 3.653a1.108 1.108 0 010 1.568l-6.06 5.997 6.051 6.006z"/></symbol><symbol viewBox="0 0 56 56" id="cross" xmlns="http://www.w3.org/2000/svg"><path d="M47.692 9.791a1.049 1.049 0 00-1.484-1.484l-18.207 18.21L9.792 8.307A1.05 1.05 0 008.309 9.79l18.209 18.208L8.309 46.21a1.044 1.044 0 000 1.483 1.049 1.049 0 001.484 0l18.208-18.211 18.207 18.211a1.048 1.048 0 101.484-1.483L29.484 27.999 47.692 9.791z"/></symbol><symbol viewBox="0 0 31 32" id="cross-search-overlay" xmlns="http://www.w3.org/2000/svg"><path d="M15.825 17.781L2.87 30.735l-.8.8-1.6-1.601.8-.8L14.224 16.18 1.27 3.226l-.8-.8L2.07.825l.801.8L15.825 14.58 27.954 2.45l.8-.8 1.601 1.6-.8.801-12.13 12.129 12.13 12.129.8.8-1.601 1.601-.8-.8-12.13-12.129z" fill="none"/></symbol><symbol viewBox="0 0 21.9 21.9" id="cross-white" xmlns="http://www.w3.org/2000/svg"><path fill="#fff" d="M14.1 11.3c-.2-.2-.2-.5 0-.7l7.5-7.5c.2-.2.3-.5.3-.7s-.1-.5-.3-.7L20.2.3c-.2-.2-.5-.3-.7-.3-.3 0-.5.1-.7.3l-7.5 7.5c-.2.2-.5.2-.7 0L3.1.3C2.9.1 2.6 0 2.4 0s-.5.1-.7.3L.3 1.7c-.2.2-.3.5-.3.7s.1.5.3.7l7.5 7.5c.2.2.2.5 0 .7L.3 18.8c-.2.2-.3.5-.3.7s.1.5.3.7l1.4 1.4c.2.2.5.3.7.3s.5-.1.7-.3l7.5-7.5c.2-.2.5-.2.7 0l7.5 7.5c.2.2.5.3.7.3s.5-.1.7-.3l1.4-1.4c.2-.2.3-.5.3-.7s-.1-.5-.3-.7l-7.5-7.5z"/></symbol><symbol viewBox="0 0 24 14" id="dropdown" xmlns="http://www.w3.org/2000/svg"><path fill-rule="evenodd" clip-rule="evenodd" d="M23.7 1.6L12.8 13.5s0 .1-.1.2c-.2.2-.5.3-.7.3-.3 0-.5-.1-.7-.3 0 0 0-.1-.1-.2L.3 1.6C-.1 1.2-.1.6.3.3c.4-.4 1-.4 1.3 0L12 11.6 22.4.3c.4-.4 1-.4 1.3 0 .4.4.4 1 0 1.3z"/></symbol><symbol viewBox="0 0 45 28" id="dropdown-arrow" xmlns="http://www.w3.org/2000/svg"><path fill="none" stroke="#C7C7C6" stroke-miterlimit="10" d="M.6 0v28"/><path fill="#666766" d="M28.8 10.9l-6.4 6.9s0 .1-.1.1c-.1.1-.3.2-.4.2-.2 0-.3-.1-.4-.2 0 0 0-.1-.1-.1L15 10.9c-.2-.2-.2-.6 0-.8.2-.2.6-.2.8 0l6.1 6.6 6.1-6.6c.2-.2.6-.2.8 0 .3.2.3.6 0 .8z"/></symbol><symbol viewBox="0 0 45 28" id="dropdown-arrow-white" xmlns="http://www.w3.org/2000/svg"><path fill="none" stroke="#FFF" stroke-miterlimit="10" d="M.6 0v28"/><path fill="#FFF" d="M28.8 10.9l-6.4 6.9s0 .1-.1.1c-.1.1-.3.2-.4.2-.2 0-.3-.1-.4-.2 0 0 0-.1-.1-.1L15 10.9c-.2-.2-.2-.6 0-.8.2-.2.6-.2.8 0l6.1 6.6 6.1-6.6c.2-.2.6-.2.8 0 .3.2.3.6 0 .8z"/></symbol><symbol viewBox="0 0 23 13" id="dropdown-white" xmlns="http://www.w3.org/2000/svg"><g fill="none" fill-rule="evenodd" stroke="#fff"><path d="M11.5 11.4l9.9-9.9-.708-.707-9.9 9.9z"/><path d="M11.5 11.4l.707-.708-9.9-9.9-.706.708z"/></g></symbol><symbol viewBox="0 0 33 34" id="dt-arrow-left" xmlns="http://www.w3.org/2000/svg"><g fill="none" fill-rule="evenodd" stroke="#000" stroke-width="2" transform="matrix(-1 0 0 1 32 1.31)"><ellipse cx="15.5" cy="15.707" rx="15.5" ry="15.707"/><path d="M13 8.107l6 8.107-6 8.107"/></g></symbol><symbol viewBox="0 0 33 33" id="dt-arrow-left-white" xmlns="http://www.w3.org/2000/svg"><g fill="none" fill-rule="evenodd" stroke="#FFF" stroke-width="2" transform="matrix(-1 0 0 1 32 1)"><circle cx="15.5" cy="15.5" r="15.5"/><path d="M13 8l6 8-6 8"/></g></symbol><symbol viewBox="0 0 33 34" id="dt-arrow-right" xmlns="http://www.w3.org/2000/svg"><g fill="none" fill-rule="evenodd" stroke="#000" stroke-width="2" transform="translate(1 1.31)"><ellipse cx="15.5" cy="15.707" rx="15.5" ry="15.707"/><path d="M13 8.107l6 8.107-6 8.107"/></g></symbol><symbol viewBox="0 0 33 33" id="dt-arrow-right-white" xmlns="http://www.w3.org/2000/svg"><g fill="none" fill-rule="evenodd" stroke="#FFF" stroke-width="2" transform="translate(1 1)"><circle cx="15.5" cy="15.5" r="15.5"/><path d="M13 8l6 8-6 8"/></g></symbol><symbol viewBox="0 0 22 15" id="email" xmlns="http://www.w3.org/2000/svg"><path d="M6.9 2.9l4.4 2.9 3.8-2.5C17.3 1.9 19 .6 19 .4c0-.2-3.7-.4-8.2-.4H2.5l4.4 2.9z"/><path d="M0 7.9V15h22V7.9c0-5.3-.3-6.8-1.2-6.3-.7.4-3.2 2-5.5 3.6L11 8.1 6.8 5.2C4.4 3.6 1.9 2 1.3 1.6.3 1.1 0 2.6 0 7.9z"/></symbol><symbol viewBox="0 0 15 15" id="external-link-copy" xmlns="http://www.w3.org/2000/svg"><defs><path id="aza" d="M6.027 12.138H0V0h12.053v12.138z"/></defs><g fill="none" fill-rule="evenodd"><path stroke="#000" stroke-linecap="round" stroke-linejoin="round" stroke-width="1.356" d="M8.685 1.068l4.496.141c.388.012.692.34.678.727l-.173 4.494m-.38-4.658L8.054 6.67"/><g transform="translate(.187 2.8)"><mask id="azb" fill="#fff"><use xlink:href="#aza"/></mask><path fill="#000" d="M10.706 9.765c0 .561-.453 1.017-1.01 1.017h-7.34c-.556 0-1.01-.456-1.01-1.017V2.373c0-.56.454-1.017 1.01-1.017h2.997V0H2.356A2.367 2.367 0 000 2.373v7.392a2.367 2.367 0 002.356 2.373h7.34c1.3 0 2.357-1.064 2.357-2.373V6.747h-1.347v3.018z" mask="url(#azb)"/></g></g></symbol><symbol viewBox="0 0 14 30" id="facebook" xmlns="http://www.w3.org/2000/svg"><path d="M13.395 15.01H9.19v14.985H2.962V15.01H0V9.715h2.962V6.287C2.962 3.834 4.127 0 9.248 0l4.613.019v5.14h-3.348c-.546 0-1.322.272-1.322 1.443v3.113h4.749l-.545 5.295" fill-rule="evenodd"/></symbol><symbol viewBox="0 0 22 22" id="flag-globe" xmlns="http://www.w3.org/2000/svg"><defs><circle id="bba" cx="11" cy="11" r="11"/><mask id="bbb" maskContentUnits="userSpaceOnUse" maskUnits="objectBoundingBox" x="0" y="0" width="22" height="22" fill="#fff"><use xlink:href="#bba"/></mask></defs><g stroke="#000" fill="none" fill-rule="evenodd"><use mask="url(#bbb)" stroke-width="2" xlink:href="#bba"/><path d="M11 21.585A12.747 12.747 0 0016.631 11c0-4.377-2.204-8.24-5.563-10.538"/><path d="M18.789 17.861a12.708 12.708 0 00-8.102-2.901c-3.05 0-5.852 1.07-8.047 2.857M18.789 4.136a12.708 12.708 0 01-8.102 2.901c-3.05 0-5.852-1.07-8.047-2.856"/><path d="M11 21.585A12.747 12.747 0 015.367 11c0-4.377 2.204-8.24 5.563-10.538M11 21.12V.44M21.352 11H0"/></g></symbol><symbol viewBox="0 0 13 11" id="global-nav-marker" xmlns="http://www.w3.org/2000/svg"><g fill="none" fill-rule="evenodd"><path fill="#fff" d="M0 5h12v1H0z"/><path stroke="#fff" d="M7 10.5l5.277-5.055L7 .5"/></g></symbol><symbol viewBox="0 0 12 11" id="icon-close" xmlns="http://www.w3.org/2000/svg"><path d="M.5 10.5l5.277-5.055L.5.5m10.577 10L5.8 5.445 11.077.5" stroke="#000" fill="none"/></symbol><symbol viewBox="0 0 92 92" id="icon-gps" xmlns="http://www.w3.org/2000/svg"><g fill-rule="evenodd"><path d="M76.418 44.167c-.762-15.521-13.25-28.01-28.771-28.771V.167h-3v15.229c-15.521.761-28.01 13.25-28.771 28.771H.897v3h14.979c.76 15.521 13.25 28.01 28.771 28.771v15.229h3V75.938c15.521-.761 28.01-13.25 28.771-28.771h14.979v-3H76.418zM46.147 72.976c-15.058 0-27.309-12.251-27.309-27.309 0-15.058 12.25-27.309 27.309-27.309 15.059 0 27.308 12.251 27.308 27.309 0 15.058-12.249 27.309-27.308 27.309z"/><path d="M46.147 27.708c-9.903 0-17.959 8.057-17.959 17.959s8.056 17.959 17.959 17.959c9.902 0 17.958-8.057 17.958-17.959s-8.056-17.959-17.958-17.959zm0 32.918c-8.249 0-14.959-6.711-14.959-14.959s6.71-14.959 14.959-14.959c8.248 0 14.958 6.711 14.958 14.959s-6.71 14.959-14.958 14.959z"/></g></symbol><symbol viewBox="0 0 50 50" id="icon-info" xmlns="http://www.w3.org/2000/svg"><circle fill="#999" cx="25" cy="25" r="24.5"/><path fill="#FFF" d="M23.3 26.1c.4-1 .7-1.9.8-2.5.2-.6.3-1.2.3-1.5s-.1-.6-.2-.7c-.1-.1-.3-.2-.4-.2-.3 0-.6.1-1 .4-.4.3-.7.6-1.1 1-.4.4-.7.8-1 1.1-.3.4-.5.7-.6.9l-1.2-.7c.3-.6.8-1.2 1.4-2 .6-.7 1.3-1.4 2-2 .8-.6 1.5-1.1 2.4-1.5.8-.4 1.6-.6 2.3-.6.7 0 1.2.2 1.6.6.3.4.5 1.1.5 2.1 0 .8-.2 1.8-.7 3.1-.5 1.3-1.1 3-1.9 5.1l-1.6 4.1c-.1.1-.1.3-.2.6l-.3.9c-.1.3-.2.6-.2.9-.1.3-.1.5-.1.7 0 .2.1.5.2.6.1.2.4.3.7.3.4 0 .9-.2 1.3-.5s.9-.7 1.3-1.2.8-.9 1.1-1.4c.3-.5.6-.8.8-1.1l1.3.7c-.3.6-.8 1.4-1.4 2.1-.6.8-1.2 1.5-2 2.2-.7.7-1.5 1.2-2.4 1.6-.9.4-1.8.7-2.7.7-.8 0-1.4-.2-1.8-.6-.4-.4-.6-1.1-.6-2 0-.8.1-1.6.4-2.5.3-.9.7-2 1.2-3.4l1.8-5.3zm5.1-10.8c-.7 0-1.3-.2-1.8-.7-.5-.5-.8-1-.8-1.8 0-.7.3-1.3.8-1.9.5-.5 1.1-.8 1.9-.8.8 0 1.4.3 1.9.8s.8 1.1.8 1.8-.3 1.3-.8 1.8c-.7.6-1.3.8-2 .8z"/></symbol><symbol viewBox="0 0 10 1" id="icon-minus-accordian" xmlns="http://www.w3.org/2000/svg"><path d="M0 0h10v10H0z" fill-rule="evenodd"/></symbol><symbol viewBox="0 0 44 49" id="icon-pin" xmlns="http://www.w3.org/2000/svg"><g transform="translate(2 1)" fill="none" fill-rule="evenodd"><path d="M24.89 39.398C33.573 37.216 40 29.358 40 20c0-.325-.008-.648-.023-.969L40 19h-.025C39.455 8.419 30.71 0 20 0S.546 8.419.025 19H0l.023.031C.008 19.352 0 19.675 0 20c0 9.359 6.428 17.216 15.11 19.398L20 46l4.89-6.602z" stroke="#5A5A5A" stroke-width="2"/><circle fill="#5A5A5A" cx="20" cy="21" r="5"/></g></symbol><symbol viewBox="0 0 10 10" id="icon-plus-accordian" xmlns="http://www.w3.org/2000/svg"><path d="M5.5 4.5V0h-1v4.5H0v1h4.5V10h1V5.5H10v-1H5.5z" fill-rule="evenodd"/></symbol><symbol viewBox="0 0 24.14 25" id="icon-search" xmlns="http://www.w3.org/2000/svg"><path d="M23.4 25a7.59 7.59 0 00.74-.58l-.07-.09L17.02 17a10 10 0 10-.7.64L23.39 25zM9.97 19a9 9 0 119-9 9 9 0 01-9 9z" fill="#fff"/></symbol><symbol viewBox="0 0 26 26" id="icon-search-hover" xmlns="http://www.w3.org/2000/svg"><g fill="none" fill-rule="evenodd"><circle fill="#FFF" cx="9.375" cy="9.375" r="9.375"/><path d="M16 16l8.515 8.515" stroke="#FFF" stroke-width="1.4" stroke-linecap="square"/></g></symbol><symbol style="background:#fff" viewBox="0 0 40 40" id="left-right-arrow" xmlns="http://www.w3.org/2000/svg"><defs><path id="bla" d="M0 0h40v40H0z"/><mask id="blb" maskContentUnits="userSpaceOnUse" maskUnits="objectBoundingBox" x="0" y="0" width="40" height="40" fill="#fff"><use xlink:href="#bla"/></mask></defs><g fill="none" fill-rule="evenodd"><use stroke="#000" mask="url(#blb)" stroke-width="2" xlink:href="#bla"/><path fill="#000" d="M14 20h12v1H14z"/><path stroke="#000" d="M21 25.5l5.277-5.055L21 15.5"/></g></symbol><symbol viewBox="0 0 95.481 95.481" id="odnoklassniki_ru" xmlns="http://www.w3.org/2000/svg"><path d="M43.041 67.254c-7.402-.772-14.076-2.595-19.79-7.064-.709-.556-1.441-1.092-2.088-1.713-2.501-2.402-2.753-5.153-.774-7.988 1.693-2.426 4.535-3.075 7.489-1.682.572.27 1.117.607 1.639.969 10.649 7.317 25.278 7.519 35.967.329 1.059-.812 2.191-1.474 3.503-1.812 2.551-.655 4.93.282 6.299 2.514 1.564 2.549 1.544 5.037-.383 7.016-2.956 3.034-6.511 5.229-10.461 6.761-3.735 1.448-7.826 2.177-11.875 2.661.611.665.899.992 1.281 1.376 5.498 5.524 11.02 11.025 16.5 16.566 1.867 1.888 2.257 4.229 1.229 6.425-1.124 2.4-3.64 3.979-6.107 3.81-1.563-.108-2.782-.886-3.865-1.977-4.149-4.175-8.376-8.273-12.441-12.527-1.183-1.237-1.752-1.003-2.796.071-4.174 4.297-8.416 8.528-12.683 12.735-1.916 1.889-4.196 2.229-6.418 1.15-2.362-1.145-3.865-3.556-3.749-5.979.08-1.639.886-2.891 2.011-4.014 5.441-5.433 10.867-10.88 16.295-16.322.359-.362.694-.746 1.217-1.305z"/><path d="M47.55 48.329c-13.205-.045-24.033-10.992-23.956-24.218C23.67 10.739 34.505-.037 47.84 0c13.362.036 24.087 10.967 24.02 24.478-.068 13.199-10.971 23.897-24.31 23.851zm12.001-24.186c-.023-6.567-5.253-11.795-11.807-11.801-6.609-.007-11.886 5.316-11.835 11.943.049 6.542 5.324 11.733 11.896 11.709 6.552-.023 11.768-5.285 11.746-11.851z"/></symbol><symbol viewBox="0 0 23 20" id="page-first" xmlns="http://www.w3.org/2000/svg"><defs><path d="M1.599 13.073l-.679.678 8.485 8.486 2.832-2.832-6.333-6.332 6.333-6.333-2.832-2.832L.92 12.394l.679.679zm10 0l-.679.678 8.485 8.486 2.832-2.832-6.333-6.332 6.333-6.333-2.832-2.832-8.485 8.486.679.679z" id="bna"/></defs><use xlink:href="#bna" transform="translate(0 -3)" fill="#333" fill-rule="evenodd"/></symbol><symbol viewBox="0 0 23 20" id="page-last" xmlns="http://www.w3.org/2000/svg"><defs><path d="M1.599 13.073l-.679.678 8.485 8.486 2.832-2.832-6.333-6.332 6.333-6.333-2.832-2.832L.92 12.394l.679.679zm10 0l-.679.678 8.485 8.486 2.832-2.832-6.333-6.332 6.333-6.333-2.832-2.832-8.485 8.486.679.679z" id="boa"/></defs><use xlink:href="#boa" transform="rotate(180 11.5 11.5)" fill="#333" fill-rule="evenodd"/></symbol><symbol viewBox="0 0 15 24" id="page-next" xmlns="http://www.w3.org/2000/svg"><defs><path d="M69.578 18.88l.265.265L81.157 7.831 78.325 5l-8.747 8.747L60.831 5 58 7.831l11.314 11.314.264-.265z" id="bpa"/></defs><use transform="rotate(-90 38.427 43.078)" xlink:href="#bpa" fill="#333" fill-rule="evenodd"/></symbol><symbol viewBox="0 0 15 24" id="page-prev" xmlns="http://www.w3.org/2000/svg"><defs><path d="M69.578 18.88l.265.265L81.157 7.831 78.325 5l-8.747 8.747L60.831 5 58 7.831l11.314 11.314.264-.265z" id="bqa"/></defs><use transform="rotate(90 38.578 -18.927)" xlink:href="#bqa" fill="#333" fill-rule="evenodd"/></symbol><symbol viewBox="0 0 70 70" id="play-video" xmlns="http://www.w3.org/2000/svg"><defs><path id="bra" d="M0 0h70v70H0z"/><path id="brb" d="M32.25 28.53l11 6.47-11 6.47z"/><mask id="brc" maskContentUnits="userSpaceOnUse" maskUnits="objectBoundingBox" x="0" y="0" width="70" height="70" fill="#fff"><use xlink:href="#bra"/></mask><mask id="brd" maskContentUnits="userSpaceOnUse" maskUnits="objectBoundingBox" x="0" y="0" width="11" height="12.941" fill="#fff"><use xlink:href="#brb"/></mask></defs><g stroke="#000" stroke-width="2" fill="none" fill-rule="evenodd"><use mask="url(#brc)" fill="#FFF" xlink:href="#bra"/><use mask="url(#brd)" fill="#000" xlink:href="#brb"/></g></symbol><symbol viewBox="0 0 56 56" id="plus" xmlns="http://www.w3.org/2000/svg"><path fill="#949494" d="M54.8 29.048a1.05 1.05 0 000-2.098l-25.75.003V1.2a1.05 1.05 0 00-2.097 0v25.751L1.2 26.952a1.046 1.046 0 00-1.05 1.05 1.047 1.047 0 001.05 1.05l25.752-.002-.003 25.75A1.047 1.047 0 0028 55.85c.58.001 1.05-.47 1.049-1.05l.002-25.75 25.75-.002z" fill-rule="evenodd"/></symbol><symbol viewBox="0 0 34 35" id="radio-checked" xmlns="http://www.w3.org/2000/svg"><circle cx="27" cy="27" r="17" transform="translate(-10 -9.094)" fill="#333" fill-rule="evenodd"/></symbol><symbol viewBox="0 0 21 21" id="reset" xmlns="http://www.w3.org/2000/svg"><path d="M10.7 0A9.54 9.54 0 003 3.6V0H1v7h7V5H4.48a6.89 6.89 0 016.22-3.1 8.35 8.35 0 018.3 8.45A8.58 8.58 0 0110.7 19 9.14 9.14 0 012 11H0c.44 5.17 5.44 10 10.7 10C16.22 21 21 15.87 21 10.35A10.53 10.53 0 0010.7 0z"/></symbol><symbol viewBox="0 0 21 21" id="retake-quiz" xmlns="http://www.w3.org/2000/svg"><path d="M10.7 0A9.54 9.54 0 003 3.6V0H1v7h7V5H4.48a6.89 6.89 0 016.22-3.1 8.35 8.35 0 018.3 8.45A8.58 8.58 0 0110.7 19 9.14 9.14 0 012 11H0c.44 5.17 5.44 10 10.7 10C16.22 21 21 15.87 21 10.35A10.53 10.53 0 0010.7 0z"/></symbol><symbol viewBox="0 0 28 28" id="search" xmlns="http://www.w3.org/2000/svg"><defs><circle id="bwa" cx="10.5" cy="10.5" r="10.25"/><mask id="bwb" maskContentUnits="userSpaceOnUse" maskUnits="objectBoundingBox" x="0" y="0" width="20.5" height="20.5" fill="#fff"><use xlink:href="#bwa"/></mask></defs><g stroke="#FFF" stroke-width="2" fill="none" fill-rule="evenodd"><use mask="url(#bwb)" xlink:href="#bwa"/><path d="M18 18l8.515 8.515" stroke-linecap="square"/></g></symbol><symbol viewBox="0 0 32 33" id="search-black" xmlns="http://www.w3.org/2000/svg"><path d="M30.606 27.669l-6.042-6.232a1.431 1.431 0 00-1.03-.437h-.989a13.196 13.196 0 002.667-8c0-7.181-5.642-13-12.606-13C5.642 0 0 5.819 0 13s5.642 13 12.606 13c2.927 0 5.618-1.025 7.758-2.75v1.019c0 .4.151.781.424 1.062l6.042 6.232a1.42 1.42 0 002.055 0l1.715-1.77a1.54 1.54 0 00.006-2.124zm-18-6.669c-4.285 0-7.758-3.575-7.758-8 0-4.419 3.467-8 7.758-8 4.285 0 7.758 3.575 7.758 8 0 4.419-3.467 8-7.758 8z"/></symbol><symbol viewBox="0 0 26 30" id="shopping-bag" xmlns="http://www.w3.org/2000/svg"><defs><path id="bya" d="M0 5h26v25H0z"/><path d="M10.5 7.5a5 5 0 000-10" id="byb"/><mask id="byc" maskContentUnits="userSpaceOnUse" maskUnits="objectBoundingBox" x="0" y="0" width="26" height="25" fill="#fff"><use xlink:href="#bya"/></mask><mask id="byd" maskContentUnits="userSpaceOnUse" maskUnits="objectBoundingBox" x="0" y="0" width="5" height="10" fill="#fff"><use xlink:href="#byb"/></mask></defs><g stroke="#FFF" stroke-width="2" fill="none" fill-rule="evenodd"><use mask="url(#byc)" xlink:href="#bya"/><use mask="url(#byd)" transform="matrix(0 -1 -1 0 15.5 15.5)" xlink:href="#byb"/></g></symbol><symbol viewBox="0 0 26 24" id="star" xmlns="http://www.w3.org/2000/svg"><path d="M24.46 8.235l-7.229-1.051L13.998.638a1.147 1.147 0 00-2.055 0L8.711 7.184l-7.23 1.05a1.143 1.143 0 00-.636 1.952l5.233 5.096-1.236 7.195a1.143 1.143 0 001.662 1.206l6.466-3.397 6.468 3.397a1.142 1.142 0 001.205-.087c.352-.256.53-.69.456-1.119l-1.235-7.195 5.231-5.096a1.144 1.144 0 00-.634-1.951z" fill="#C7C7C7" fill-rule="evenodd"/></symbol><symbol viewBox="0 0 30 25" id="twitter" xmlns="http://www.w3.org/2000/svg"><path d="M26.934 6.073c.012.263.018.527.018.794C26.952 15 20.76 24.38 9.437 24.38A17.42 17.42 0 010 21.615c.483.054.973.084 1.469.084a12.34 12.34 0 007.644-2.633 6.166 6.166 0 01-5.75-4.274 6.202 6.202 0 002.778-.107 6.163 6.163 0 01-4.936-6.034v-.077c.831.461 1.78.736 2.789.77a6.153 6.153 0 01-2.738-5.125c0-1.128.304-2.186.834-3.095a17.47 17.47 0 0012.687 6.432A6.155 6.155 0 0120.775 0c1.769 0 3.37.747 4.492 1.94a12.28 12.28 0 003.91-1.493 6.177 6.177 0 01-2.707 3.406 12.285 12.285 0 003.535-.967 12.491 12.491 0 01-3.07 3.187" fill-rule="evenodd"/></symbol><symbol viewBox="0 0 548.358 548.358" id="vk" xmlns="http://www.w3.org/2000/svg"><path d="M545.451 400.298c-.664-1.431-1.283-2.618-1.858-3.569-9.514-17.135-27.695-38.167-54.532-63.102l-.567-.571-.284-.28-.287-.287h-.288c-12.18-11.611-19.893-19.418-23.123-23.415-5.91-7.614-7.234-15.321-4.004-23.13 2.282-5.9 10.854-18.36 25.696-37.397 7.807-10.089 13.99-18.175 18.556-24.267 32.931-43.78 47.208-71.756 42.828-83.939l-1.701-2.847c-1.143-1.714-4.093-3.282-8.846-4.712-4.764-1.427-10.853-1.663-18.278-.712l-82.224.568c-1.332-.472-3.234-.428-5.712.144l-3.713.859-1.431.715-1.136.859c-.952.568-1.999 1.567-3.142 2.995-1.137 1.423-2.088 3.093-2.848 4.996-8.952 23.031-19.13 44.444-30.553 64.238-7.043 11.803-13.511 22.032-19.418 30.693-5.899 8.658-10.848 15.037-14.842 19.126-4 4.093-7.61 7.372-10.852 9.849-3.237 2.478-5.708 3.525-7.419 3.142-1.715-.383-3.33-.763-4.859-1.143-2.663-1.714-4.805-4.045-6.42-6.995-1.622-2.95-2.714-6.663-3.285-11.136-.568-4.476-.904-8.326-1-11.563-.089-3.233-.048-7.806.145-13.706.198-5.903.287-9.897.287-11.991 0-7.234.141-15.085.424-23.555.288-8.47.521-15.181.716-20.125.194-4.949.284-10.185.284-15.705s-.336-9.849-1-12.991a44.442 44.442 0 00-2.99-9.137c-1.335-2.95-3.289-5.232-5.853-6.852-2.569-1.618-5.763-2.902-9.564-3.856-10.089-2.283-22.936-3.518-38.547-3.71-35.401-.38-58.148 1.906-68.236 6.855-3.997 2.091-7.614 4.948-10.848 8.562-3.427 4.189-3.905 6.475-1.431 6.851 11.422 1.711 19.508 5.804 24.267 12.275l1.715 3.429c1.334 2.474 2.666 6.854 3.999 13.134 1.331 6.28 2.19 13.227 2.568 20.837.95 13.897.95 25.793 0 35.689-.953 9.9-1.853 17.607-2.712 23.127-.859 5.52-2.143 9.993-3.855 13.418-1.715 3.426-2.856 5.52-3.428 6.28-.571.76-1.047 1.239-1.425 1.427a21.387 21.387 0 01-7.71 1.431c-2.667 0-5.901-1.334-9.707-4-3.805-2.666-7.754-6.328-11.847-10.992-4.093-4.665-8.709-11.184-13.85-19.558-5.137-8.374-10.467-18.271-15.987-29.691l-4.567-8.282c-2.855-5.328-6.755-13.086-11.704-23.267-4.952-10.185-9.329-20.037-13.134-29.554-1.521-3.997-3.806-7.04-6.851-9.134l-1.429-.859c-.95-.76-2.475-1.567-4.567-2.427a30.301 30.301 0 00-6.567-1.854l-78.229.568c-7.994 0-13.418 1.811-16.274 5.428l-1.143 1.711c-.571.953-.859 2.475-.859 4.57 0 2.094.571 4.664 1.714 7.707 11.42 26.84 23.839 52.725 37.257 77.659 13.418 24.934 25.078 45.019 34.973 60.237 9.897 15.229 19.985 29.602 30.264 43.112 10.279 13.515 17.083 22.176 20.412 25.981 3.333 3.812 5.951 6.662 7.854 8.565l7.139 6.851c4.568 4.569 11.276 10.041 20.127 16.416 8.853 6.379 18.654 12.659 29.408 18.85 10.756 6.181 23.269 11.225 37.546 15.126 14.275 3.905 28.169 5.472 41.684 4.716h32.834c6.659-.575 11.704-2.669 15.133-6.283l1.136-1.431c.764-1.136 1.479-2.901 2.139-5.276.668-2.379 1-5 1-7.851-.195-8.183.428-15.558 1.852-22.124 1.423-6.564 3.045-11.513 4.859-14.846 1.813-3.33 3.859-6.14 6.136-8.418 2.282-2.283 3.908-3.666 4.862-4.142.948-.479 1.705-.804 2.276-.999 4.568-1.522 9.944-.048 16.136 4.429 6.187 4.473 11.99 9.996 17.418 16.56 5.425 6.57 11.943 13.941 19.555 22.124 7.617 8.186 14.277 14.271 19.985 18.274l5.708 3.426c3.812 2.286 8.761 4.38 14.853 6.283 6.081 1.902 11.409 2.378 15.984 1.427l73.087-1.14c7.229 0 12.854-1.197 16.844-3.572 3.998-2.379 6.373-5 7.139-7.851.764-2.854.805-6.092.145-9.712-.677-3.611-1.344-6.136-2.008-7.563z"/></symbol><symbol viewBox="0 0.5 48.619 34.196" id="youtube" xmlns="http://www.w3.org/2000/svg"><path fill="#949494" d="M48.134 7.877s-.475-3.35-1.932-4.826c-1.85-1.937-3.922-1.946-4.872-2.06C34.526.5 24.32.5 24.32.5h-.021S14.094.5 7.29.992c-.95.113-3.021.123-4.872 2.06C.96 4.528.486 7.878.486 7.878S0 11.812 0 15.746v3.689c0 3.935.486 7.869.486 7.869s.474 3.351 1.932 4.826c1.85 1.937 4.279 1.875 5.361 2.078 3.89.373 16.53.488 16.53.488s10.217-.016 17.021-.508c.95-.113 3.022-.122 4.872-2.059 1.457-1.476 1.932-4.826 1.932-4.826s.485-3.935.485-7.869v-3.689c0-3.933-.485-7.868-.485-7.868zM19.29 23.904l-.002-13.661 13.138 6.854-13.136 6.807z"/></symbol></svg>