<svg id="Livello_1" data-name="Livello 1" xmlns="http://www.w3.org/2000/svg" viewBox="0 0 197.7 55.32"><defs><style>.cls-1{fill:#1d1d1b;}</style></defs><title>logo_gente_roma</title><path class="cls-1" d="M90,68.55a4.89,4.89,0,0,1,1.67.87,2.77,2.77,0,0,1,.7,1.41,3.13,3.13,0,0,0,.81,1.67,2.13,2.13,0,0,0,1.36.46c.15,0,.22,0,.22.13s-.09.12-.26.12a18.81,18.81,0,0,1-2.94-.12c-.34-.09-.6-.56-.76-1.41a9.15,9.15,0,0,0-.49-1.84,1.83,1.83,0,0,0-.82-.88,3.71,3.71,0,0,0-1.74-.31,7.17,7.17,0,0,0-1,.08c0,.29,0,.59,0,.91,0,1.18,0,1.94.06,2.29a1,1,0,0,0,.37.75,1.73,1.73,0,0,0,1,.26c.21,0,.31,0,.31.13s-.13.13-.39.13H83.75c-.26,0-.38,0-.38-.13s.1-.13.31-.13a1.82,1.82,0,0,0,.91-.16,1,1,0,0,0,.4-.49,3.31,3.31,0,0,0,.15-1.22l0-1.41V67.5A18.56,18.56,0,0,0,85,65.32a1.13,1.13,0,0,0-.33-.7,2.34,2.34,0,0,0-1.08-.29c-.12,0-.18-.05-.18-.12s.12-.11.36-.11L88.92,64a5.64,5.64,0,0,1,3.08.64,1.91,1.91,0,0,1,1,1.6,1.75,1.75,0,0,1-.37,1.08,2.42,2.42,0,0,1-.92.72A12.9,12.9,0,0,1,90,68.55Zm-3.28-.17a15.3,15.3,0,0,0,2.5-.2,2.69,2.69,0,0,0,1.41-.69,1.68,1.68,0,0,0,.58-1.29,1.78,1.78,0,0,0-.65-1.36,3.08,3.08,0,0,0-2.08-.58,9.76,9.76,0,0,0-1.72.16q-.11,1.9-.11,3C86.62,67.71,86.65,68,86.68,68.38Z" transform="translate(-12.65 -18)"/><path class="cls-1" d="M97.77,68.6a4,4,0,0,1,.7-2.05,5.48,5.48,0,0,1,2.08-1.84,6.42,6.42,0,0,1,3.07-.72,5.75,5.75,0,0,1,4,1.37,4.08,4.08,0,0,1,1.57,3.12,4.38,4.38,0,0,1-1.73,3.35,6.21,6.21,0,0,1-4.16,1.49A6,6,0,0,1,99.34,72,4.21,4.21,0,0,1,97.77,68.6Zm1.93-.22a6.92,6.92,0,0,0,.43,2.31,3.19,3.19,0,0,0,1.36,1.73,4,4,0,0,0,2,.53,3.27,3.27,0,0,0,2.72-1.33,4.89,4.89,0,0,0,1-3.07,4.57,4.57,0,0,0-1.05-3,3.39,3.39,0,0,0-2.73-1.28,3.28,3.28,0,0,0-2.12.68,4,4,0,0,0-1.23,1.63A4.55,4.55,0,0,0,99.7,68.38Z" transform="translate(-12.65 -18)"/><path class="cls-1" d="M116,64.13c.58,1,1.12,1.91,1.63,2.68.61.93,1.07,1.7,1.42,2.31a14.88,14.88,0,0,0,1.18,1.82,54.37,54.37,0,0,0,4.16-6.81h3.44c.13,0,.18.05.18.12s-.07.11-.21.13a2.46,2.46,0,0,0-1.23.29,1.15,1.15,0,0,0-.37.78c0,.37-.1,1-.14,2s-.07,1.82-.07,2.48c0,1.27,0,2,0,2.22a.65.65,0,0,0,.29.5,2.3,2.3,0,0,0,1,.27c.16,0,.22.06.22.14s-.09.1-.27.1H123c-.19,0-.29,0-.29-.11s.06-.1.2-.12a2.84,2.84,0,0,0,1-.21.86.86,0,0,0,.36-.5,7.38,7.38,0,0,0,.12-1.77l.16-3.33.08-1.64c0-.13,0-.19-.07-.19a.2.2,0,0,0-.17.11l-1.71,2.7c-1.1,1.74-1.77,2.84-2,3.33l-.53,1a2.32,2.32,0,0,1-.3.53.19.19,0,0,1-.13,0c-.06,0-.13-.06-.17-.19a27.39,27.39,0,0,0-1.6-2.72q-.76-1.3-1.81-3c-.71-1.11-1.08-1.69-1.14-1.74a.26.26,0,0,0-.13-.07c-.05,0-.09.05-.09.18l-.1,4.19,0,1.38a2,2,0,0,0,.37,1.45,1.65,1.65,0,0,0,1.09.33c.3,0,.45,0,.45.15s-.07.11-.22.11h-2c-.53,0-1.22,0-2,.07-.07,0-.1-.07-.1-.11s.1-.14.3-.15a1.71,1.71,0,0,0,1.27-.46,3.12,3.12,0,0,0,.4-2V69.37l.12-3.09a2.11,2.11,0,0,0-.39-1.48,1.94,1.94,0,0,0-1.17-.48c-.22,0-.33-.06-.33-.14s.08-.12.24-.12h.32Z" transform="translate(-12.65 -18)"/><path class="cls-1" d="M135.63,64h.4a54.87,54.87,0,0,1,2.67,5.42,21.89,21.89,0,0,0,1.5,3,1.64,1.64,0,0,0,1.31.62c.19,0,.28.07.28.16s0,.09-.15.09h-.12c-.53,0-1.2-.06-2-.06-1.26,0-2.07,0-2.42.05-.18,0-.27,0-.27-.13s.07-.09.2-.12a3.11,3.11,0,0,0,1-.19.49.49,0,0,0,.27-.47,5.74,5.74,0,0,0-.53-1.49l-.5-1.19-4,0a8.67,8.67,0,0,0-.91,2.42.65.65,0,0,0,.45.62,2.14,2.14,0,0,0,.88.23c.21,0,.32.06.32.17s0,.06-.1.1l-1.68-.05c-1,0-1.61,0-2,0-.18,0-.28,0-.28-.12s.09-.12.24-.14a1.92,1.92,0,0,0,1.52-1.08q.53-1,1.65-3.51A48,48,0,0,1,135.63,64Zm-.35,1.51a31.54,31.54,0,0,0-1.88,3.82l1.28,0,2.42,0c-.2-.48-.51-1.11-.9-1.91S135.43,65.79,135.28,65.46Z" transform="translate(-12.65 -18)"/><path class="cls-1" d="M32.44,38.24V33H49.65V45.41a23.22,23.22,0,0,1-7.27,3.38,32.69,32.69,0,0,1-9.64,1.45A26.47,26.47,0,0,1,21.9,48.19,15,15,0,0,1,15,42.31,15.7,15.7,0,0,1,12.65,34a15,15,0,0,1,2.59-8.66,16.33,16.33,0,0,1,7.58-5.81A25.33,25.33,0,0,1,32.29,18q7.37,0,11.51,2.43a11.08,11.08,0,0,1,5.34,6.74L41.2,28.33a6.77,6.77,0,0,0-3.15-3.62,11.33,11.33,0,0,0-5.76-1.34A12.44,12.44,0,0,0,24,26q-3.09,2.61-3.1,7.76,0,5.55,3.13,8.33a12,12,0,0,0,8.2,2.77,17,17,0,0,0,5-.77,19.72,19.72,0,0,0,4.33-1.88v-4Z" transform="translate(-12.65 -18)"/><path class="cls-1" d="M100.93,49.7V18.52h7.47l15.54,20.83V18.52h7.46V49.7h-7.46L107.77,29.37V49.7Z" transform="translate(-12.65 -18)"/><path class="cls-1" d="M152.53,49.7V23.6H140.71V18h31.09V23.6H160.61V49.7Z" transform="translate(-12.65 -18)"/><path class="cls-1" d="M181.13,49.7V18.29h28.4v5.3H188.58v7.12h19.9v4.7h-19.9v8.71h21.77V49.7Z" transform="translate(-12.65 -18)"/><path class="cls-1" d="M60.52,49.7V18.29h28.4v5.3H68v7.12h19.9v4.7H68v8.71H89.74V49.7Z" transform="translate(-12.65 -18)"/></svg>