<svg width="144" height="18" viewBox="0 0 144 18" xmlns="http://www.w3.org/2000/svg"><path d="M5.467 8.358c-.106-.14-.277-.212-.45-.193-.173.02-.325.126-.4.284L.32 17.04c-.08.16-.072.35.02.5.095.153.26.245.44.244h5.987c.197.004.377-.108.46-.285 1.29-2.67.508-6.73-1.76-9.15zM8.62.538C6.444 3.89 6.193 8.14 7.96 11.728l2.883 5.774c.087.174.265.285.46.285h5.982c.18 0 .345-.092.438-.244.094-.152.102-.34.022-.5L9.495.537C9.412.37 9.242.265 9.057.265c-.186 0-.355.106-.437.272zM78.8 7.433c0 2.127.986 3.817 4.836 4.567 2.302.485 2.785.856 2.785 1.614 0 .757-.48 1.228-2.1 1.228-1.96-.034-3.88-.554-5.59-1.512v3.466c1.168.57 2.69 1.206 5.55 1.206 4.03 0 5.64-1.8 5.64-4.476m0 0c0-2.523-1.34-3.707-5.1-4.52-2.082-.458-2.59-.92-2.59-1.578 0-.833.75-1.185 2.13-1.185 1.67 0 3.314.506 4.87 1.207V4.143c-1.49-.68-3.12-1.016-4.76-.986-3.727 0-5.66 1.612-5.66 4.277m51.86-4.06v14.414h3.07V6.798l1.294 2.917 4.347 8.073h3.86V3.374h-3.07v9.3L139 9.978l-3.487-6.604m-27.74 0h3.355v14.413h-3.356zm-3.87 10.158c0-2.522-1.345-3.707-5.107-4.52-2.084-.458-2.59-.92-2.59-1.578 0-.833.747-1.185 2.128-1.185 1.67 0 3.315.5 4.87 1.2V4.14c-1.49-.68-3.12-1.016-4.76-.986-3.726 0-5.66 1.612-5.66 4.277 0 2.13.988 3.82 4.838 4.57 2.302.49 2.786.86 2.786 1.62s-.484 1.23-2.107 1.23c-1.96-.034-3.88-.554-5.59-1.51v3.46c1.17.57 2.69 1.206 5.55 1.206 4.03 0 5.64-1.8 5.64-4.475M52.73 3.375v14.413h6.9l1.088-3.117H56.11V3.38m-17.008 0v3.11h3.73v11.3h3.378V6.49h3.99V3.375m-16 0h-4.427l-5.027 14.413h3.84l.71-2.418c1.755.515 3.62.515 5.374 0l.712 2.418h3.842L34.2 3.374zm-2.214 9.386c-.625 0-1.246-.09-1.845-.26l1.85-6.3 1.85 6.3c-.6.177-1.22.267-1.843.268zM71.52 3.38h-4.43l-5.03 14.41h3.84l.71-2.42c1.755.516 3.62.516 5.374 0l.712 2.42h3.84L71.518 3.373zm-2.207 9.387c-.624 0-1.246-.09-1.845-.266l1.845-6.28 1.847 6.29c-.6.175-1.223.264-1.848.263zm53.904-9.386h-4.425l-5.027 14.42h3.84l.71-2.415c1.755.515 3.62.515 5.375 0l.71 2.418h3.84l-5.023-14.42zm-2.214 9.39c-.625 0-1.246-.09-1.846-.262l1.846-6.287 1.846 6.293c-.6.174-1.23.263-1.85.26z" fill="#505F79"/></svg>