<svg width="18" height="6" viewBox="0 0 18 6" xmlns="http://www.w3.org/2000/svg">
  <path d="M15.4 5.1333333c.5888918 0 1.0916646-.2083312 1.5083333-.625.4166688-.4166687.625-.9194415.625-1.5083333 0-.5888918-.2083312-1.0916646-.625-1.5083333-.4166687-.4166688-.9194415-.625-1.5083333-.625-.5888918 0-1.0916646.2083312-1.5083333.625-.4166688.4166687-.625.9194415-.625 1.5083333 0 .5888918.2083312 1.0916646.625 1.5083333.4166687.4166688.9194415.625 1.5083333.625zm-6.4 0c.5888918 0 1.0916646-.2083312 1.5083333-.625.4166688-.4166687.625-.9194415.625-1.5083333 0-.5888918-.2083312-1.0916646-.625-1.5083333-.4166687-.4166688-.9194415-.625-1.5083333-.625-.5888918 0-1.0916646.2083312-1.5083333.625-.4166688.4166687-.625.9194415-.625 1.5083333 0 .5888918.2083312 1.0916646.625 1.5083333.4166687.4166688.9194415.625 1.5083333.625zm-6.4 0c.5888918 0 1.0916646-.2083312 1.5083333-.625.4166688-.4166687.625-.9194415.625-1.5083333 0-.5888918-.2083312-1.0916646-.625-1.5083333-.4166687-.4166688-.9194415-.625-1.5083333-.625-.58889183 0-1.09166458.2083312-1.50833333.625-.41666875.4166687-.625.9194415-.625 1.5083333 0 .5888918.20833125 1.0916646.625 1.5083333.41666875.4166688.9194415.625 1.50833333.625z" fill="#FFF" fill-rule="evenodd"/>
</svg>
